<svg viewBox="0 0 1040.71435546875 400.0000305175781" xmlns="http://www.w3.org/2000/svg"><g><g><g><g><g><line x1="40" y1="371.78626254421624" x2="35" y2="371.78626254421624" style="visibility: inherit;" fill="rgb(0, 0, 0)" stroke="rgb(204, 204, 204)" stroke-width="1px"></line><line x1="40" y1="345.5923315880523" x2="35" y2="345.5923315880523" style="visibility: inherit;" fill="rgb(0, 0, 0)" stroke="rgb(204, 204, 204)" stroke-width="1px"></line><line x1="40" y1="319.39840063188825" x2="35" y2="319.39840063188825" style="visibility: inherit;" fill="rgb(0, 0, 0)" stroke="rgb(204, 204, 204)" stroke-width="1px"></line><line x1="40" y1="293.2044696757242" x2="35" y2="293.2044696757242" style="visibility: inherit;" fill="rgb(0, 0, 0)" stroke="rgb(204, 204, 204)" stroke-width="1px"></line><line x1="40" y1="267.01053871956026" x2="35" y2="267.01053871956026" style="visibility: inherit;" fill="rgb(0, 0, 0)" stroke="rgb(204, 204, 204)" stroke-width="1px"></line><line x1="40" y1="240.8166077633962" x2="35" y2="240.8166077633962" style="visibility: inherit;" fill="rgb(0, 0, 0)" stroke="rgb(204, 204, 204)" stroke-width="1px"></line><line x1="40" y1="214.6226768072322" x2="35" y2="214.6226768072322" style="visibility: inherit;" fill="rgb(0, 0, 0)" stroke="rgb(204, 204, 204)" stroke-width="1px"></line><line x1="40" y1="188.4287458510682" x2="35" y2="188.4287458510682" style="visibility: inherit;" fill="rgb(0, 0, 0)" stroke="rgb(204, 204, 204)" stroke-width="1px"></line><line x1="40" y1="162.2348148949042" x2="35" y2="162.2348148949042" style="visibility: inherit;" fill="rgb(0, 0, 0)" stroke="rgb(204, 204, 204)" stroke-width="1px"></line><line x1="40" y1="136.0408839387402" x2="35" y2="136.0408839387402" style="visibility: inherit;" fill="rgb(0, 0, 0)" stroke="rgb(204, 204, 204)" stroke-width="1px"></line><line x1="40" y1="109.84695298257614" x2="35" y2="109.84695298257614" style="visibility: inherit;" fill="rgb(0, 0, 0)" stroke="rgb(204, 204, 204)" stroke-width="1px"></line><line x1="40" y1="83.65302202641216" x2="35" y2="83.65302202641216" style="visibility: inherit;" fill="rgb(0, 0, 0)" stroke="rgb(204, 204, 204)" stroke-width="1px"></line><line x1="40" y1="57.459091070248114" x2="35" y2="57.459091070248114" style="visibility: inherit;" fill="rgb(0, 0, 0)" stroke="rgb(204, 204, 204)" stroke-width="1px"></line><line x1="40" y1="31.265160114084164" x2="35" y2="31.265160114084164" style="visibility: inherit;" fill="rgb(0, 0, 0)" stroke="rgb(204, 204, 204)" stroke-width="1px"></line><line x1="40" y1="5.071229157920169" x2="35" y2="5.071229157920169" style="visibility: inherit;" fill="rgb(0, 0, 0)" stroke="rgb(204, 204, 204)" stroke-width="1px"></line></g><g transform="translate(30, 0)"><text x="0" y="371.78626254421624" dx="0em" dy="0.3em" style="text-anchor: end; visibility: inherit; font-family: Roboto, sans-serif; font-size: 12px; font-weight: 200;" fill="rgb(33, 33, 33)" stroke="none" stroke-width="1px">20</text><text x="0" y="345.5923315880523" dx="0em" dy="0.3em" style="text-anchor: end; visibility: inherit; font-family: Roboto, sans-serif; font-size: 12px; font-weight: 200;" fill="rgb(33, 33, 33)" stroke="none" stroke-width="1px">40</text><text x="0" y="319.39840063188825" dx="0em" dy="0.3em" style="text-anchor: end; visibility: inherit; font-family: Roboto, sans-serif; font-size: 12px; font-weight: 200;" fill="rgb(33, 33, 33)" stroke="none" stroke-width="1px">60</text><text x="0" y="293.2044696757242" dx="0em" dy="0.3em" style="text-anchor: end; visibility: inherit; font-family: Roboto, sans-serif; font-size: 12px; font-weight: 200;" fill="rgb(33, 33, 33)" stroke="none" stroke-width="1px">80</text><text x="0" y="267.01053871956026" dx="0em" dy="0.3em" style="text-anchor: end; visibility: inherit; font-family: Roboto, sans-serif; font-size: 12px; font-weight: 200;" fill="rgb(33, 33, 33)" stroke="none" stroke-width="1px">100</text><text x="0" y="240.8166077633962" dx="0em" dy="0.3em" style="text-anchor: end; visibility: inherit; font-family: Roboto, sans-serif; font-size: 12px; font-weight: 200;" fill="rgb(33, 33, 33)" stroke="none" stroke-width="1px">120</text><text x="0" y="214.6226768072322" dx="0em" dy="0.3em" style="text-anchor: end; visibility: inherit; font-family: Roboto, sans-serif; font-size: 12px; font-weight: 200;" fill="rgb(33, 33, 33)" stroke="none" stroke-width="1px">140</text><text x="0" y="188.4287458510682" dx="0em" dy="0.3em" style="text-anchor: end; visibility: inherit; font-family: Roboto, sans-serif; font-size: 12px; font-weight: 200;" fill="rgb(33, 33, 33)" stroke="none" stroke-width="1px">160</text><text x="0" y="162.2348148949042" dx="0em" dy="0.3em" style="text-anchor: end; visibility: inherit; font-family: Roboto, sans-serif; font-size: 12px; font-weight: 200;" fill="rgb(33, 33, 33)" stroke="none" stroke-width="1px">180</text><text x="0" y="136.0408839387402" dx="0em" dy="0.3em" style="text-anchor: end; visibility: inherit; font-family: Roboto, sans-serif; font-size: 12px; font-weight: 200;" fill="rgb(33, 33, 33)" stroke="none" stroke-width="1px">200</text><text x="0" y="109.84695298257614" dx="0em" dy="0.3em" style="text-anchor: end; visibility: inherit; font-family: Roboto, sans-serif; font-size: 12px; font-weight: 200;" fill="rgb(33, 33, 33)" stroke="none" stroke-width="1px">220</text><text x="0" y="83.65302202641216" dx="0em" dy="0.3em" style="text-anchor: end; visibility: inherit; font-family: Roboto, sans-serif; font-size: 12px; font-weight: 200;" fill="rgb(33, 33, 33)" stroke="none" stroke-width="1px">240</text><text x="0" y="57.459091070248114" dx="0em" dy="0.3em" style="text-anchor: end; visibility: inherit; font-family: Roboto, sans-serif; font-size: 12px; font-weight: 200;" fill="rgb(33, 33, 33)" stroke="none" stroke-width="1px">260</text><text x="0" y="31.265160114084164" dx="0em" dy="0.3em" style="text-anchor: end; visibility: inherit; font-family: Roboto, sans-serif; font-size: 12px; font-weight: 200;" fill="rgb(33, 33, 33)" stroke="none" stroke-width="1px">280</text><text x="0" y="5.071229157920169" dx="0em" dy="0.3em" style="text-anchor: end; visibility: hidden; font-family: Roboto, sans-serif; font-size: 12px; font-weight: 200;" fill="rgb(33, 33, 33)" stroke="none" stroke-width="1px">300</text></g><line x1="40" y1="0" x2="40" y2="377" fill="rgb(0, 0, 0)" stroke="rgb(204, 204, 204)" stroke-width="1px"></line></g></g><g transform="translate(40, 0)" clip-path="url(#clip_0)"><clipPath id="clip_0"><rect width="1000" height="377"></rect></clipPath><g><g><g><line x1="19.458061742196076" y1="0" x2="19.458061742196076" y2="377" fill="rgb(0, 0, 0)" stroke="rgb(66, 66, 66)" stroke-width="1px" opacity="0.25"></line><line x1="115.58237025800128" y1="0" x2="115.58237025800128" y2="377" fill="rgb(0, 0, 0)" stroke="rgb(66, 66, 66)" stroke-width="1px" opacity="0.25"></line><line x1="211.70667877380646" y1="0" x2="211.70667877380646" y2="377" fill="rgb(0, 0, 0)" stroke="rgb(66, 66, 66)" stroke-width="1px" opacity="0.25"></line><line x1="307.8309872896117" y1="0" x2="307.8309872896117" y2="377" fill="rgb(0, 0, 0)" stroke="rgb(66, 66, 66)" stroke-width="1px" opacity="0.25"></line><line x1="403.95529580541694" y1="0" x2="403.95529580541694" y2="377" fill="rgb(0, 0, 0)" stroke="rgb(66, 66, 66)" stroke-width="1px" opacity="0.25"></line><line x1="500.07960432122206" y1="0" x2="500.07960432122206" y2="377" fill="rgb(0, 0, 0)" stroke="rgb(66, 66, 66)" stroke-width="1px" opacity="0.25"></line><line x1="596.2039128370272" y1="0" x2="596.2039128370272" y2="377" fill="rgb(0, 0, 0)" stroke="rgb(66, 66, 66)" stroke-width="1px" opacity="0.25"></line><line x1="692.3282213528324" y1="0" x2="692.3282213528324" y2="377" fill="rgb(0, 0, 0)" stroke="rgb(66, 66, 66)" stroke-width="1px" opacity="0.25"></line><line x1="788.4525298686376" y1="0" x2="788.4525298686376" y2="377" fill="rgb(0, 0, 0)" stroke="rgb(66, 66, 66)" stroke-width="1px" opacity="0.25"></line><line x1="884.5768383844428" y1="0" x2="884.5768383844428" y2="377" fill="rgb(0, 0, 0)" stroke="rgb(66, 66, 66)" stroke-width="1px" opacity="0.25"></line><line x1="980.701146900248" y1="0" x2="980.701146900248" y2="377" fill="rgb(0, 0, 0)" stroke="rgb(66, 66, 66)" stroke-width="1px" opacity="0.25"></line></g><g><line x1="0" y1="371.78626254421624" x2="1000.71" y2="371.78626254421624" fill="rgb(0, 0, 0)" stroke="rgb(66, 66, 66)" stroke-width="1px" opacity="0.25"></line><line x1="0" y1="345.5923315880523" x2="1000.71" y2="345.5923315880523" fill="rgb(0, 0, 0)" stroke="rgb(66, 66, 66)" stroke-width="1px" opacity="0.25"></line><line x1="0" y1="319.39840063188825" x2="1000.71" y2="319.39840063188825" fill="rgb(0, 0, 0)" stroke="rgb(66, 66, 66)" stroke-width="1px" opacity="0.25"></line><line x1="0" y1="293.2044696757242" x2="1000.71" y2="293.2044696757242" fill="rgb(0, 0, 0)" stroke="rgb(66, 66, 66)" stroke-width="1px" opacity="0.25"></line><line x1="0" y1="267.01053871956026" x2="1000.71" y2="267.01053871956026" fill="rgb(0, 0, 0)" stroke="rgb(66, 66, 66)" stroke-width="1px" opacity="0.25"></line><line x1="0" y1="240.8166077633962" x2="1000.71" y2="240.8166077633962" fill="rgb(0, 0, 0)" stroke="rgb(66, 66, 66)" stroke-width="1px" opacity="0.25"></line><line x1="0" y1="214.6226768072322" x2="1000.71" y2="214.6226768072322" fill="rgb(0, 0, 0)" stroke="rgb(66, 66, 66)" stroke-width="1px" opacity="0.25"></line><line x1="0" y1="188.4287458510682" x2="1000.71" y2="188.4287458510682" fill="rgb(0, 0, 0)" stroke="rgb(66, 66, 66)" stroke-width="1px" opacity="0.25"></line><line x1="0" y1="162.2348148949042" x2="1000.71" y2="162.2348148949042" fill="rgb(0, 0, 0)" stroke="rgb(66, 66, 66)" stroke-width="1px" opacity="0.25"></line><line x1="0" y1="136.0408839387402" x2="1000.71" y2="136.0408839387402" fill="rgb(0, 0, 0)" stroke="rgb(66, 66, 66)" stroke-width="1px" opacity="0.25"></line><line x1="0" y1="109.84695298257614" x2="1000.71" y2="109.84695298257614" fill="rgb(0, 0, 0)" stroke="rgb(66, 66, 66)" stroke-width="1px" opacity="0.25"></line><line x1="0" y1="83.65302202641216" x2="1000.71" y2="83.65302202641216" fill="rgb(0, 0, 0)" stroke="rgb(66, 66, 66)" stroke-width="1px" opacity="0.25"></line><line x1="0" y1="57.459091070248114" x2="1000.71" y2="57.459091070248114" fill="rgb(0, 0, 0)" stroke="rgb(66, 66, 66)" stroke-width="1px" opacity="0.25"></line><line x1="0" y1="31.265160114084164" x2="1000.71" y2="31.265160114084164" fill="rgb(0, 0, 0)" stroke="rgb(66, 66, 66)" stroke-width="1px" opacity="0.25"></line><line x1="0" y1="5.071229157920169" x2="1000.71" y2="5.071229157920169" fill="rgb(0, 0, 0)" stroke="rgb(66, 66, 66)" stroke-width="1px" opacity="0.25"></line></g></g></g><g><g><line x1="0" y1="397.98019350038027" x2="1000.71" y2="397.98019350038027" fill="rgb(0, 0, 0)" stroke="rgb(153, 153, 153)" stroke-width="1.5px"></line></g></g><g><g><line x1="19.458061742196076" y1="0" x2="19.458061742196076" y2="377" fill="rgb(0, 0, 0)" stroke="rgb(153, 153, 153)" stroke-width="1.5px"></line></g></g><g><g><g><g><g><path stroke="rgb(255, 112, 67)" stroke-width="2px" d="M24.379626338205302,257.8426628849028L29.301190934214528,313.9140463379414L34.22275553022376,315.7098674972447L39.144320126232984,299.34848730441274L44.06588472224221,307.1925923121171L48.987449318251436,330.7226686209189L53.90901391426066,334.95544941322834L58.83057851026989,344.87758150205747L63.752143106279114,358.66129439235874L68.67370770228834,348.65831752253314L73.59527229829756,284.3331189271771L78.51683689430679,278.4390138986643L83.43840149031601,285.1397657851799L88.35996608632524,300.68897990246126L93.28153068233446,274.37020256686486L98.2030952783437,309.94145057352137L103.12465987435291,284.6446853382242L108.04622447036215,316.0992997255939L112.96778906637137,312.4418703374184L117.8893536623806,261.7870112827271L122.81091825838983,258.1136768653485L127.73248285439907,300.7019392856839L132.65404745040829,237.45641077346946L137.57561204641752,266.5661943162291L142.49717664242672,236.62082634242932L147.41874123843598,268.1602740013779L152.3403058344452,305.68161817782305L157.26187043045442,317.45488181882166L162.18343502646363,306.9688951692675L167.1049996224729,320.84663694741835L172.0265642184821,313.194980048093L176.94812881449133,307.55622923643114L181.86969341050053,307.8401295456229L186.7912580065098,305.91495518592956L191.712822602519,315.23742316799746L196.63438719852823,341.52410952348004L201.55595179453744,332.93576522325463L206.4775163905467,323.8536690191216L211.3990809865559,339.6214954399875L216.32064558256513,362.96497469534904L221.24221017857434,374.08972982110606L226.1637747745836,332.82968921800204L231.0853393705928,336.10117100003527L236.00690396660204,358.4953262179981L240.92846856261124,357.00127869972744L245.8500331586205,361.34363638042396L250.77159775462974,363.94905098866855L255.69316235063894,367.08393561095806L260.61472694664815,363.4641408834181L265.53629154265735,370.72207919122064L270.4578561386666,349.40678983869935L275.3794207346759,324.83034729694475L280.3009853306851,320.03817553529734L285.2225499266943,350.42916479267745L290.14411452270355,319.94304676858945L295.06567911871275,341.9900296266567L299.98724371472196,297.32963192835615L304.90880831073116,327.11228417470426L309.8303729067404,343.9341182842639L314.7519375027497,345.3832215344642L319.6735020987589,314.558027027625L324.5950666947681,280.0846124402617L329.51663129077735,310.4787290523645L334.43819588678656,343.1218610455163L339.35976048279576,357.4689540501744L344.28132507880497,338.0497037298736L349.20288967481423,278.9871385070363L354.1244542708235,263.4569869000186L359.0460188668327,302.3357288951498L363.9675834628419,335.3547285460092L368.88914805885116,312.99389949710076L373.81071265486037,296.6960696625777L378.7322772508696,331.44705438734263L383.6538418468788,322.43656393217464L388.5754064428881,277.4774339152662L393.4969710388973,281.67273374295627L398.4185356349065,234.1595055132971L403.3401002309157,243.6327684619394L408.26166482692497,284.41659371238455L413.1832294229342,313.6017964347611L418.1047940189434,332.94649323511857L423.0263586149526,337.48094995716883L427.9479232109619,345.1784708720701L432.8694878069711,322.29335591703864L437.7910524029803,278.1773270348695L442.7126169989896,270.5673399940061L447.6341815949988,296.38630767863833L452.555746191008,295.1135724774727L457.4773107870172,279.1574514021982L462.39887538302645,301.54037452355357L467.3204399790357,279.87026091510705L472.2420045750449,273.4166754890801L477.1635691710541,305.43020964340866L482.0851337670634,320.97117980214284L487.0066983630726,340.24945566072563L491.9282629590818,262.7570559249177L496.849827555091,275.197960734802L501.7713921511002,241.538032019555L506.69295674710946,270.84860429755685L511.6145213431188,235.78514644246823L516.5360859391279,234.1305806369765L521.4576505351372,240.47214182140738L526.3792151311465,285.92542875236666L531.3007797271556,253.99911695001157L536.2223443231649,259.203685657831L541.143908919174,290.61587231517984L546.0654735151833,300.55724778449337L550.9870381111925,296.5683793027392L555.9086027072018,253.3125259220708L560.8301673032109,311.1795929533946L565.7517318992202,345.89983317218883L570.6732964952295,323.2500519162332L575.5948610912386,301.27812525668725L580.5164256872479,220.25268808449496L585.437990283257,231.3595883612335L590.3595548792664,269.98032429379674L595.2811194752755,298.91543066369076L600.2026840712848,305.79892210316154L605.1242486672941,314.90586384851514L610.0458132633032,314.083485466248L614.9673778593125,307.30351500740835L619.8889424553216,343.5741864045971L624.8105070513309,340.9762334536779L629.7320716473401,339.4174616831263L634.6536362433493,276.140642945125L639.5752008393586,134.97046373503804L644.4967654353677,149.54335453284745L649.418330031377,124.49691807808152L654.3398946273862,118.898871349441L659.2614592233955,152.473485960448L664.1830238194046,143.5429913657101L669.1045884154139,199.7404323558528L674.026153011423,233.19695764037675L678.9477176074323,179.9278661338319L683.8692822034416,265.8391005326431L688.7908467994507,208.41908839428743L693.7124113954601,284.2435304367246L698.6339759914692,300.1390536817215L703.5555405874785,320.41587932074697L708.4771051834877,329.7006422989842L713.3986697794969,354.13113037436455L718.3202343755062,326.61719438016877L723.2417989715153,324.5154948095415L728.1633635675246,343.4238019034114L733.0849281635338,245.5400940725294L738.0064927595431,270.8923877432867L742.9280573555523,281.6507956831932L747.8496219515615,220.78743788979557L752.7711865475707,193.1753597388528L757.6927511435799,178.96556663434185L762.6143157395892,190.34707829831996L767.5358803355983,179.36411224651528L772.4574449316077,122.74392448915921L777.3790095276169,163.1625757502514L782.3005741236261,225.3949663933445L787.2221387196353,121.025234306353L792.1437033156445,231.80721798396397L797.0652679116538,160.23439205154614L801.9868325076629,168.89274047573858L806.9083971036722,209.97343494019873L811.8299616996815,95.00819962252058L816.7515262956907,56.937896960187274L821.6730908916999,32.26214019585587L826.5946554877091,145.2830692033373L831.5162200837184,212.57174798870295L836.4377846797275,202.91454713364902L841.3593492757368,209.4313741700138L846.2809138717461,256.03757785038L851.2024784677553,252.5685829112029L856.1240430637645,242.6290066608474L861.0456076597737,289.3150621325238L865.9671722557829,261.27168316933864L870.8887368517921,216.4181496683321L875.8103014478014,212.03281019002915L880.7318660438106,215.42621062296516L885.6534306398199,253.6098756022331L890.5749952358291,182.74580176672666L895.4965598318383,67.67016871684848L900.4181244278475,132.73771538248133L905.3396890238567,84.02857467871162L910.261253619866,187.6063202042013L915.1828182158752,233.51273032667342L920.1043828118844,273.3677239495538L925.0259474078937,285.2315118834466L929.947512003903,311.73329355134365L934.8690765999121,303.01206745328767L939.7906411959214,315.32926553508395L944.7122057919305,340.5314574343533L949.6337703879398,241.97111222416302L954.555334983949,300.1837157816637L959.4768995799582,295.29650286279485L964.3984641759675,291.8402964923502L969.3200287719767,333.77237667643897L974.241593367986,351.33538480960465" style="fill: none;" fill="none"></path></g></g></g></g><g opacity="0.2"><g><g><g><path stroke="rgb(255, 112, 67)" stroke-width="2px" d="M24.379626338205302,257.8426628849028L29.301190934214528,347.5568764097645L34.22275553022376,317.433855810176L39.144320126232984,280.10750419764224L44.06588472224221,317.433855810176L48.987449318251436,363.27323498346294L53.90901391426066,341.00839367072354L58.83057851026989,359.3441453400384L63.752143106279114,378.9895935571614L68.67370770228834,333.8050626577785L73.59527229829756,188.4287458510682L78.51683689430679,269.62993181517663L83.43840149031601,295.16901449743654L88.35996608632524,323.98233854921693L93.28153068233446,234.92297329825934L98.2030952783437,363.27323498346294L103.12465987435291,246.7102422285331L108.04622447036215,363.27323498346294L112.96778906637137,306.95628342771033L117.8893536623806,185.80935275545178L122.81091825838983,252.60387669367003L127.73248285439907,364.58293153127113L132.65404745040829,142.58936667778116L137.57561204641752,310.2305247972309L142.49717664242672,191.7029872205887L147.41874123843598,315.46931098846363L152.3403058344452,361.96353843565475L157.26187043045442,335.11475920558667L162.18343502646363,291.2399248540119L167.1049996224729,341.66324194462766L172.0265642184821,301.7174972364776L176.94812881449133,299.09810414086115L181.86969341050053,308.2659799755185L186.7912580065098,303.02719378428577L191.712822602519,329.22112474044974L196.63438719852823,380.95413837887367L201.55595179453744,320.0532489057924L206.4775163905467,310.2305247972309L211.3990809865559,363.27323498346294L216.32064558256513,397.98019350038027L221.24221017857434,390.77686248743515L226.1637747745836,270.9396283629848L231.0853393705928,341.00839367072354L236.00690396660204,392.08655903524345L240.92846856261124,354.76020742270964L245.8500331586205,367.8571729007917L250.77159775462974,367.8571729007917L255.69316235063894,371.78626254421624L260.61472694664815,358.0344487922302L265.53629154265735,381.6089866527778L270.4578561386666,317.433855810176L275.3794207346759,287.9656834844915L280.3009853306851,312.84991789284726L285.2225499266943,396.015648678668L290.14411452270355,274.2138697325054L295.06567911871275,375.0605039137368L299.98724371472196,230.33903538093062L304.90880831073116,371.78626254421624L309.8303729067404,369.16686944859987L314.7519375027497,347.5568764097645L319.6735020987589,268.32023526736845L324.5950666947681,228.37449055921832L329.51663129077735,356.0699039705178L334.43819588678656,392.08655903524345L339.35976048279576,378.9895935571614L344.28132507880497,308.92082824942264L349.20288967481423,190.39329067278047L354.1244542708235,240.16175948949214L359.0460188668327,360.65384188784657L363.9675834628419,384.88322802229834L368.88914805885116,279.4526559237381L373.81071265486037,272.249324910793L378.7322772508696,383.57353147449004L383.6538418468788,308.92082824942264L388.5754064428881,210.03873888990353L393.4969710388973,287.9656834844915L398.4185356349065,162.88966316880828L403.3401002309157,257.8426628849028L408.26166482692497,345.5923315880523L413.1832294229342,357.3796005183261L418.1047940189434,361.96353843565475L423.0263586149526,344.2826350402441L427.9479232109619,356.72475224442195L432.8694878069711,287.9656834844915L437.7910524029803,212.00328371161584L442.7126169989896,259.152359432711L447.6341815949988,335.11475920558667L452.555746191008,293.2044696757242L457.4773107870172,255.2232697892864L462.39887538302645,335.11475920558667L467.3204399790357,247.36509050243725L472.2420045750449,263.7362973500397L477.1635691710541,353.45051087490145L482.0851337670634,344.2826350402441L487.0066983630726,369.16686944859987L491.9282629590818,146.51845632120578L496.849827555091,293.85931794962835L501.7713921511002,191.0481389466846L506.69295674710946,314.81446271455957L511.6145213431188,183.1899596598354L516.5360859391279,231.64873192873884L521.4576505351372,249.98448359805363L526.3792151311465,354.1053591488056L531.3007797271556,206.10964924647888L536.2223443231649,267.01053871956026L541.143908919174,337.73415230120304L546.0654735151833,315.46931098846363L550.9870381111925,290.58507658010785L555.9086027072018,188.4287458510682L560.8301673032109,397.98019350038027L565.7517318992202,397.98019350038027L570.6732964952295,289.27538003229967L575.5948610912386,268.32023526736845L580.5164256872479,98.71453232620647L585.437990283257,248.01993877634132L590.3595548792664,327.91142819264155L595.2811194752755,342.3180902185317L600.2026840712848,316.12415926236775L605.1242486672941,328.5662764665457L610.0458132633032,312.84991789284726L614.9673778593125,297.13355931914884L619.8889424553216,397.98019350038027L624.8105070513309,337.079304027299L629.7320716473401,337.079304027299L634.6536362433493,181.22541483812307L639.5752008393586,-76.78480508009243L644.4967654353677,171.40269072956158L649.418330031377,86.92726339593264L654.3398946273862,110.50180125648025L659.2614592233955,202.83540787695839L664.1830238194046,130.14724947360327L669.1045884154139,284.03659384106686L674.026153011423,283.38174556716274L678.9477176074323,100.02422887401465L683.8692822034416,394.7059521308598L688.7908467994507,122.28907018675407L693.7124113954601,397.98019350038027L698.6339759914692,323.98233854921693L703.5555405874785,350.8311177792851L708.4771051834877,343.62778676633997L713.3986697794969,390.77686248743515L718.3202343755062,285.34629038887505L723.2417989715153,321.36294545360056L728.1633635675246,371.78626254421624L733.0849281635338,98.71453232620647L738.0064927595431,308.92082824942264L742.9280573555523,297.78840759305297L747.8496219515615,129.49240119969917L752.7711865475707,151.75724251243858L757.6927511435799,157.65087697757545L762.6143157395892,207.4193457942871L767.5358803355983,162.88966316880828L772.4574449316077,37.813642853125174L777.3790095276169,223.7905526418896L782.3005741236261,318.7435523579842L787.2221387196353,-35.52936382413404L792.1437033156445,397.98019350038027L797.0652679116538,52.87515315291944L801.9868325076629,181.88026311202717L806.9083971036722,271.59447663688894L811.8299616996815,-77.43965335399648L821.6730908916999,-4.751494950641365L826.5946554877091,314.81446271455957L831.5162200837184,313.5047661667514L836.4377846797275,188.4287458510682L841.3593492757368,219.20661472456092L846.2809138717461,325.9468833709293L851.2024784677553,247.36509050243725L856.1240430637645,227.71964228531422L861.0456076597737,359.3441453400384L865.9671722557829,219.20661472456092L870.8887368517921,149.13784941682215L875.8103014478014,205.45480097257482L880.7318660438106,220.5163112723691L885.6534306398199,310.88537307113495L890.5749952358291,76.44969101346705L895.4965598318383,-104.9432808579687L900.4181244278475,230.33903538093062L905.3396890238567,10.96486362305704L910.261253619866,342.9729384924359L915.1828182158752,302.37234551038165L920.1043828118844,333.1502143838744L925.0259474078937,303.02719378428577L929.947512003903,351.4859660531892L934.8690765999121,289.93022830620373L939.7906411959214,333.8050626577785L944.7122057919305,378.3347452832573L949.6337703879398,94.13059440887774L954.555334983949,387.5026211179147L959.4768995799582,287.9656834844915L964.3984641759675,286.65598693668323L969.3200287719767,396.6704969525721" style="fill: none;" fill="none"></path></g></g></g></g></g></g><g transform="translate(40, 377)" clip-path="url(#clip_1)"><clipPath id="clip_1"><rect width="1000" height="23"></rect></clipPath><g><g><line x1="19.458061742196076" y1="0" x2="19.458061742196076" y2="5" style="visibility: inherit;" fill="rgb(0, 0, 0)" stroke="rgb(204, 204, 204)" stroke-width="1px"></line><line x1="115.58237025800128" y1="0" x2="115.58237025800128" y2="5" style="visibility: inherit;" fill="rgb(0, 0, 0)" stroke="rgb(204, 204, 204)" stroke-width="1px"></line><line x1="211.70667877380646" y1="0" x2="211.70667877380646" y2="5" style="visibility: inherit;" fill="rgb(0, 0, 0)" stroke="rgb(204, 204, 204)" stroke-width="1px"></line><line x1="307.8309872896117" y1="0" x2="307.8309872896117" y2="5" style="visibility: inherit;" fill="rgb(0, 0, 0)" stroke="rgb(204, 204, 204)" stroke-width="1px"></line><line x1="403.95529580541694" y1="0" x2="403.95529580541694" y2="5" style="visibility: inherit;" fill="rgb(0, 0, 0)" stroke="rgb(204, 204, 204)" stroke-width="1px"></line><line x1="500.07960432122206" y1="0" x2="500.07960432122206" y2="5" style="visibility: inherit;" fill="rgb(0, 0, 0)" stroke="rgb(204, 204, 204)" stroke-width="1px"></line><line x1="596.2039128370272" y1="0" x2="596.2039128370272" y2="5" style="visibility: inherit;" fill="rgb(0, 0, 0)" stroke="rgb(204, 204, 204)" stroke-width="1px"></line><line x1="692.3282213528324" y1="0" x2="692.3282213528324" y2="5" style="visibility: inherit;" fill="rgb(0, 0, 0)" stroke="rgb(204, 204, 204)" stroke-width="1px"></line><line x1="788.4525298686376" y1="0" x2="788.4525298686376" y2="5" style="visibility: inherit;" fill="rgb(0, 0, 0)" stroke="rgb(204, 204, 204)" stroke-width="1px"></line><line x1="884.5768383844428" y1="0" x2="884.5768383844428" y2="5" style="visibility: inherit;" fill="rgb(0, 0, 0)" stroke="rgb(204, 204, 204)" stroke-width="1px"></line><line x1="980.701146900248" y1="0" x2="980.701146900248" y2="5" style="visibility: inherit;" fill="rgb(0, 0, 0)" stroke="rgb(204, 204, 204)" stroke-width="1px"></line></g><g transform="translate(0, 8)"><text x="19.458061742196076" y="0" dx="0em" dy="0.95em" style="text-anchor: middle; visibility: inherit; font-family: Roboto, sans-serif; font-size: 12px; font-weight: 200;" fill="rgb(33, 33, 33)" stroke="none" stroke-width="1px">0</text><text x="115.58237025800128" y="0" dx="0em" dy="0.95em" style="text-anchor: middle; visibility: inherit; font-family: Roboto, sans-serif; font-size: 12px; font-weight: 200;" fill="rgb(33, 33, 33)" stroke="none" stroke-width="1px">20k</text><text x="211.70667877380646" y="0" dx="0em" dy="0.95em" style="text-anchor: middle; visibility: inherit; font-family: Roboto, sans-serif; font-size: 12px; font-weight: 200;" fill="rgb(33, 33, 33)" stroke="none" stroke-width="1px">40k</text><text x="307.8309872896117" y="0" dx="0em" dy="0.95em" style="text-anchor: middle; visibility: inherit; font-family: Roboto, sans-serif; font-size: 12px; font-weight: 200;" fill="rgb(33, 33, 33)" stroke="none" stroke-width="1px">60k</text><text x="403.95529580541694" y="0" dx="0em" dy="0.95em" style="text-anchor: middle; visibility: inherit; font-family: Roboto, sans-serif; font-size: 12px; font-weight: 200;" fill="rgb(33, 33, 33)" stroke="none" stroke-width="1px">80k</text><text x="500.07960432122206" y="0" dx="0em" dy="0.95em" style="text-anchor: middle; visibility: inherit; font-family: Roboto, sans-serif; font-size: 12px; font-weight: 200;" fill="rgb(33, 33, 33)" stroke="none" stroke-width="1px">100k</text><text x="596.2039128370272" y="0" dx="0em" dy="0.95em" style="text-anchor: middle; visibility: inherit; font-family: Roboto, sans-serif; font-size: 12px; font-weight: 200;" fill="rgb(33, 33, 33)" stroke="none" stroke-width="1px">120k</text><text x="692.3282213528324" y="0" dx="0em" dy="0.95em" style="text-anchor: middle; visibility: inherit; font-family: Roboto, sans-serif; font-size: 12px; font-weight: 200;" fill="rgb(33, 33, 33)" stroke="none" stroke-width="1px">140k</text><text x="788.4525298686376" y="0" dx="0em" dy="0.95em" style="text-anchor: middle; visibility: inherit; font-family: Roboto, sans-serif; font-size: 12px; font-weight: 200;" fill="rgb(33, 33, 33)" stroke="none" stroke-width="1px">160k</text><text x="884.5768383844428" y="0" dx="0em" dy="0.95em" style="text-anchor: middle; visibility: inherit; font-family: Roboto, sans-serif; font-size: 12px; font-weight: 200;" fill="rgb(33, 33, 33)" stroke="none" stroke-width="1px">180k</text><text x="980.701146900248" y="0" dx="0em" dy="0.95em" style="text-anchor: middle; visibility: inherit; font-family: Roboto, sans-serif; font-size: 12px; font-weight: 200;" fill="rgb(33, 33, 33)" stroke="none" stroke-width="1px">200k</text></g><line x1="0" y1="0" x2="1000.71" y2="0" fill="rgb(0, 0, 0)" stroke="rgb(204, 204, 204)" stroke-width="1px"></line></g></g></g></g></svg>