<svg viewBox="0 0 1040.71435546875 400.0000305175781" xmlns="http://www.w3.org/2000/svg"><g><g><g><g><g><line x1="40" y1="366.7389972788139" x2="35" y2="366.7389972788139" style="visibility: inherit;" fill="rgb(0, 0, 0)" stroke="rgb(204, 204, 204)" stroke-width="1px"></line><line x1="40" y1="307.60423749436325" x2="35" y2="307.60423749436325" style="visibility: inherit;" fill="rgb(0, 0, 0)" stroke="rgb(204, 204, 204)" stroke-width="1px"></line><line x1="40" y1="248.46947770991267" x2="35" y2="248.46947770991267" style="visibility: inherit;" fill="rgb(0, 0, 0)" stroke="rgb(204, 204, 204)" stroke-width="1px"></line><line x1="40" y1="189.3347179254621" x2="35" y2="189.3347179254621" style="visibility: inherit;" fill="rgb(0, 0, 0)" stroke="rgb(204, 204, 204)" stroke-width="1px"></line><line x1="40" y1="130.19995814101145" x2="35" y2="130.19995814101145" style="visibility: inherit;" fill="rgb(0, 0, 0)" stroke="rgb(204, 204, 204)" stroke-width="1px"></line><line x1="40" y1="71.06519835656088" x2="35" y2="71.06519835656088" style="visibility: inherit;" fill="rgb(0, 0, 0)" stroke="rgb(204, 204, 204)" stroke-width="1px"></line><line x1="40" y1="11.930438572110253" x2="35" y2="11.930438572110253" style="visibility: inherit;" fill="rgb(0, 0, 0)" stroke="rgb(204, 204, 204)" stroke-width="1px"></line></g><g transform="translate(30, 0)"><text x="0" y="366.7389972788139" dx="0em" dy="0.3em" style="text-anchor: end; visibility: inherit; font-family: Roboto, sans-serif; font-size: 12px; font-weight: 200;" fill="rgb(33, 33, 33)" stroke="none" stroke-width="1px">0</text><text x="0" y="307.60423749436325" dx="0em" dy="0.3em" style="text-anchor: end; visibility: inherit; font-family: Roboto, sans-serif; font-size: 12px; font-weight: 200;" fill="rgb(33, 33, 33)" stroke="none" stroke-width="1px">50</text><text x="0" y="248.46947770991267" dx="0em" dy="0.3em" style="text-anchor: end; visibility: inherit; font-family: Roboto, sans-serif; font-size: 12px; font-weight: 200;" fill="rgb(33, 33, 33)" stroke="none" stroke-width="1px">100</text><text x="0" y="189.3347179254621" dx="0em" dy="0.3em" style="text-anchor: end; visibility: inherit; font-family: Roboto, sans-serif; font-size: 12px; font-weight: 200;" fill="rgb(33, 33, 33)" stroke="none" stroke-width="1px">150</text><text x="0" y="130.19995814101145" dx="0em" dy="0.3em" style="text-anchor: end; visibility: inherit; font-family: Roboto, sans-serif; font-size: 12px; font-weight: 200;" fill="rgb(33, 33, 33)" stroke="none" stroke-width="1px">200</text><text x="0" y="71.06519835656088" dx="0em" dy="0.3em" style="text-anchor: end; visibility: inherit; font-family: Roboto, sans-serif; font-size: 12px; font-weight: 200;" fill="rgb(33, 33, 33)" stroke="none" stroke-width="1px">250</text><text x="0" y="11.930438572110253" dx="0em" dy="0.3em" style="text-anchor: end; visibility: inherit; font-family: Roboto, sans-serif; font-size: 12px; font-weight: 200;" fill="rgb(33, 33, 33)" stroke="none" stroke-width="1px">300</text></g><line x1="40" y1="0" x2="40" y2="377" fill="rgb(0, 0, 0)" stroke="rgb(204, 204, 204)" stroke-width="1px"></line></g></g><g transform="translate(40, 0)" clip-path="url(#clip_0)"><clipPath id="clip_0"><rect width="1000" height="377"></rect></clipPath><g><g><g><line x1="31.473533690685347" y1="0" x2="31.473533690685347" y2="377" fill="rgb(0, 0, 0)" stroke="rgb(66, 66, 66)" stroke-width="1px" opacity="0.25"></line><line x1="143.15753225643377" y1="0" x2="143.15753225643377" y2="377" fill="rgb(0, 0, 0)" stroke="rgb(66, 66, 66)" stroke-width="1px" opacity="0.25"></line><line x1="254.84153082218216" y1="0" x2="254.84153082218216" y2="377" fill="rgb(0, 0, 0)" stroke="rgb(66, 66, 66)" stroke-width="1px" opacity="0.25"></line><line x1="366.52552938793053" y1="0" x2="366.52552938793053" y2="377" fill="rgb(0, 0, 0)" stroke="rgb(66, 66, 66)" stroke-width="1px" opacity="0.25"></line><line x1="478.20952795367896" y1="0" x2="478.20952795367896" y2="377" fill="rgb(0, 0, 0)" stroke="rgb(66, 66, 66)" stroke-width="1px" opacity="0.25"></line><line x1="589.8935265194274" y1="0" x2="589.8935265194274" y2="377" fill="rgb(0, 0, 0)" stroke="rgb(66, 66, 66)" stroke-width="1px" opacity="0.25"></line><line x1="701.5775250851757" y1="0" x2="701.5775250851757" y2="377" fill="rgb(0, 0, 0)" stroke="rgb(66, 66, 66)" stroke-width="1px" opacity="0.25"></line><line x1="813.2615236509241" y1="0" x2="813.2615236509241" y2="377" fill="rgb(0, 0, 0)" stroke="rgb(66, 66, 66)" stroke-width="1px" opacity="0.25"></line><line x1="924.9455222166727" y1="0" x2="924.9455222166727" y2="377" fill="rgb(0, 0, 0)" stroke="rgb(66, 66, 66)" stroke-width="1px" opacity="0.25"></line></g><g><line x1="0" y1="366.7389972788139" x2="1000.71" y2="366.7389972788139" fill="rgb(0, 0, 0)" stroke="rgb(66, 66, 66)" stroke-width="1px" opacity="0.25"></line><line x1="0" y1="307.60423749436325" x2="1000.71" y2="307.60423749436325" fill="rgb(0, 0, 0)" stroke="rgb(66, 66, 66)" stroke-width="1px" opacity="0.25"></line><line x1="0" y1="248.46947770991267" x2="1000.71" y2="248.46947770991267" fill="rgb(0, 0, 0)" stroke="rgb(66, 66, 66)" stroke-width="1px" opacity="0.25"></line><line x1="0" y1="189.3347179254621" x2="1000.71" y2="189.3347179254621" fill="rgb(0, 0, 0)" stroke="rgb(66, 66, 66)" stroke-width="1px" opacity="0.25"></line><line x1="0" y1="130.19995814101145" x2="1000.71" y2="130.19995814101145" fill="rgb(0, 0, 0)" stroke="rgb(66, 66, 66)" stroke-width="1px" opacity="0.25"></line><line x1="0" y1="71.06519835656088" x2="1000.71" y2="71.06519835656088" fill="rgb(0, 0, 0)" stroke="rgb(66, 66, 66)" stroke-width="1px" opacity="0.25"></line><line x1="0" y1="11.930438572110253" x2="1000.71" y2="11.930438572110253" fill="rgb(0, 0, 0)" stroke="rgb(66, 66, 66)" stroke-width="1px" opacity="0.25"></line></g></g></g><g><g><line x1="0" y1="366.7389972788139" x2="1000.71" y2="366.7389972788139" fill="rgb(0, 0, 0)" stroke="rgb(153, 153, 153)" stroke-width="1.5px"></line></g></g><g><g><line x1="31.473533690685347" y1="0" x2="31.473533690685347" y2="377" fill="rgb(0, 0, 0)" stroke="rgb(153, 153, 153)" stroke-width="1.5px"></line></g></g><g><g><g><g><g><path stroke="rgb(255, 112, 67)" stroke-width="2px" d="M32.61717783599861,305.83019470082974L33.76082198131187,268.8709698355481L34.90446612662514,288.33113313196174L36.0481102719384,239.84710795604758L37.191754417251666,235.1229142645991L38.335398562564926,271.985310534454L39.47904270787819,222.15510922348122L40.62268685319145,280.97664029290127L41.76633099850471,264.018249122638L42.90997514381799,179.22816442362657L44.05361928913125,191.1197163160868L45.19726343444451,210.31678408543561L46.340907579757776,224.4135777303777L47.484551725071036,188.59237121868168L48.628195870384296,223.91369524998345L49.77184001569756,251.4842141156829L50.91548416101083,272.98970747222626L52.05912830632409,302.6866511236242L53.20277245163735,318.37390586005915L54.34641659695062,306.25980731159683L55.490060742263886,279.3584607112058L56.633704887577146,263.9276568990282L57.77734903289041,266.02326814288045L58.92099317820367,219.26297182642705L60.06463732351693,266.8996435611971L61.2082814688302,280.8161144820421L62.35192561414347,315.18530277728405L63.495569759456735,282.5854767525256L64.63921390476999,303.7103236723253L65.78285805008326,321.35254776274667L66.92650219539651,255.53575994502853L68.07014634070978,255.31117646362418L69.21379048602304,281.19572193385164L70.3574346313363,280.40525425679397L71.50107877664958,312.10028354080833L72.64472292196284,273.6383136591578L73.7883670672761,254.58229567429217L74.93201121258936,247.16984863912265L76.07565535790263,275.1282288697127L77.2192995032159,216.68384242183106L78.36294364852915,275.52320921612727L79.50658779384243,312.0095244587602L80.65023193915567,318.52627604470615L81.79387608446895,288.6112443925038L82.93752022978222,286.0372629500545L84.08116437509547,278.1063200276372L85.22480852040874,310.9574614988214L86.368452665722,332.08738061560376L87.51209681103526,331.28260685433327L88.65574095634854,333.40167202811466L89.79938510166178,345.3173678936253L90.94302924697506,327.39364726421474L92.08667339228832,319.9509614345368L93.23031753760158,338.6661757722672L94.37396168291484,321.0375416000629L95.51760582822811,326.54501575812407L96.66124997354137,312.1090723176202L97.80489411885463,317.16677052331437L98.94853826416791,332.97449756017284L100.09218240948115,343.1687508997005L101.23582655479443,352.3603104122084L102.3794707001077,358.1117851588507L103.52311484542095,343.5857030323628L104.66675899073422,339.12775646095065L105.81040313604748,334.7972152441388L106.95404728136074,335.9835151402565L108.09769142667402,325.57796023845043L109.24133557198728,338.257750428391L110.38497971730054,346.10216358149313L111.5286238626138,348.91649916025193L112.67226800792707,302.5876755625334L113.81591215324033,307.6693078440568L114.9595562985536,331.2971836179596L116.10320044386685,332.2277228905844L117.24684458918011,342.01106898053354L118.39048873449339,332.50603909054587L119.53413287980665,332.00688001758493L120.67777702511991,337.1477824739778L121.82142117043318,345.67272184798304L122.96506531574643,334.70303081101554L124.1087094610597,332.1423798541777L125.25235360637296,340.06755084558716L126.39599775168624,335.3610918749207L127.5396418969995,334.90260688389884L128.68328604231274,325.40249336291146L129.82693018762603,332.4755333637603L130.9705743329393,340.0309039121989L132.11421847825255,335.81218179316335L133.2578626235658,348.18290798742356L134.40150676887907,349.6918677255346L135.54515091419233,350.3607045292635L136.68879505950562,345.79468678960694L137.83243920481888,346.3666226937422L138.97608335013211,350.02133078415267L140.1197274954454,343.2256721511624L141.26337164075866,337.96558177567925L142.40701578607192,319.1979509672944L143.55065993138518,325.91433945673646L144.69430407669844,333.01918005919316L145.8379482220117,335.1532330684269L146.981592367325,344.47599220465247L148.12523651263825,348.650413451561L149.26888065795148,339.32811424281596L150.41252480326474,350.29246745721514L151.55616894857803,341.49604184189747L152.6998130938913,341.65858437287636L153.84345723920455,341.51957085232584L154.9871013845178,350.4246462272321L156.13074552983107,352.92922298252216L157.27438967514433,340.7127047657037L158.41803382045762,350.65014369267215L159.56167796577088,342.65680373972293L160.70532211108412,349.9242907639813L161.8489662563974,351.68285354802043L162.99261040171066,351.79183506189275L164.13625454702392,323.70907831281767L165.2798986923372,338.7921945469759L166.42354283765044,310.7054351428359L167.5671869829637,310.4111122399981L168.710831128277,327.50186835535493L169.85447527359025,320.4889721675095L170.9981194189035,311.7869927111839L172.14176356421677,290.7176894151559L173.28540770953003,298.41846480339007L174.4290518548433,319.1235846977011L175.57269600015658,331.54665663428773L176.71634014546984,337.81780460055074L177.85998429078307,338.26894683237924L179.00362843609636,344.21656911078367L180.14727258140962,350.1505328692043L181.29091672672288,341.1743420499532L182.43456087203617,335.3155494801269L183.5782050173494,347.4118505213261L184.72184916266266,355.1427092243212L185.86549330797595,352.921592311122L187.0091374532892,333.8484942278673L188.15278159860247,341.56429754807647L189.29642574391573,351.1610993620958L190.440069889229,351.2422435112002L191.58371403454225,331.6581897522252L192.72735817985554,341.43281005838026L193.8710023251688,330.0302323850137L195.01464647048203,342.82142602943134L196.15829061579532,331.3364800459199L197.30193476110858,327.52051996460455L198.44557890642184,333.0367322073628L199.5892230517351,339.6580061009469L200.73286719704836,313.35377342745875L201.87651134236162,309.398185780256L203.02015548767488,327.6037295969231L204.16379963298817,323.1520183429662L205.30744377830143,313.62135945559584L206.45108792361466,325.1703139802331L207.59473206892795,317.6708053076096L208.7383762142412,307.9672412430038L209.88202035955447,331.00286557905224L211.02566450486776,323.0626485800035L212.169308650181,323.0292991633302L213.31295279549425,319.2246648871215L214.45659694080754,326.6399849260461L215.6002410861208,328.7237865580229L216.74388523143406,327.60867714583094L217.88752937674732,321.0261355200707L219.03117352206058,327.9574063449534L220.17481766737384,343.4700427184976L221.31846181268713,344.97183625107664L222.46210595800036,325.530555004773L223.60575010331362,335.6273778576687L224.7493942486269,313.7738649511454L225.89303839394017,307.9944674205033L227.03668253925343,289.3883303972988L228.1803266845667,303.0612472928452L229.32397082987995,306.53421664741705L230.46761497519321,317.1334036691211L231.6112591205065,328.4602357040373L232.75490326581976,323.6659220072347L233.898547411133,325.52011457190923L235.04219155644628,337.27688687191505L236.18583570175954,348.8251919955368L237.3294798470728,347.94838677816233L238.4731239923861,336.7780468865366L239.61676813769932,346.16049761293164L240.76041228301258,340.43609417015426L241.90405642832587,335.1091397913853L243.04770057363913,343.5033800818763L244.1913447189524,344.0456825125526L245.33498886426565,341.0595174230292L246.4786330095789,328.6235616081141L247.62227715489217,342.92357971984273L248.76592130020543,330.4516161036156L249.90956544551872,311.14148597698915L251.05320959083195,318.9516091103131L252.19685373614521,300.45685715480283L253.34049788145848,301.1869579383868L254.4841420267718,273.47687275113867L255.62778617208505,293.98745078342483L256.7714303173983,303.9284072114184L257.9150744627116,315.8064570466597L259.05871860802483,317.72942808677277L260.20236275333804,329.29092843290397L261.34600689865135,313.7566199224914L262.4896510439646,289.0609972722867L263.6332951892779,292.4571296957747L264.77693933459113,279.35631064504815L265.9205834799044,291.3650985021876L267.06422762521765,311.1069402907748L268.20787177053097,303.08276607635173L269.35151591584423,325.94332912682074L270.49516006115743,300.15764742108917L271.6388042064707,238.32458672664094L272.78244835178396,273.36915724700174L273.9260924970972,289.6651187764622L275.0697366424105,276.2618698586339L276.2133807877238,312.45272082670584L277.35702493303705,309.094093258942L278.5006690783503,324.58280561448106L279.6443132236636,299.5778723528232L280.78795736897683,316.7442217185695L281.93160151429004,313.08822802888704L283.07524565960335,327.4523645547237L284.2188898049166,324.953511630749L285.3625339502299,333.6253785592897L286.50617809554313,330.54963234659095L287.6498222408564,345.0253783194802L288.79346638616965,346.8511937682174L289.937110531483,332.8081845326404L291.08075467679623,340.4670336526647L292.2243988221095,345.06234312467933L293.3680429674227,344.271443220821L294.51168711273596,327.47570957799775L295.6553312580492,308.1732468659294L296.79897540336253,321.9014464264333L297.9426195486758,319.96718747981015L299.08626369398905,326.13934232510815L300.2299078393023,336.46572832814536L301.3735519846156,348.57503590841276L302.51719612992883,333.1328726993442L303.66084027524215,317.71755975632016L304.80448442055535,327.62803416066777L305.9481285658686,332.6281626467251L307.0917727111819,306.297398885272L308.23541685649514,270.6296613408247L309.3790610018084,280.9252500586219L310.5227051471217,282.37182250654416L311.666349292435,259.5858620615173L312.80999343774823,286.36246148706533L313.9536375830615,289.41877398981507L315.09728172837475,297.16603746990995L316.24092587368796,277.2143354876355L317.3845700190013,300.9607092080789L318.52821416431453,311.1873697750023L319.6718583096278,248.0174276477803L320.81550245494105,267.59444888193303L321.9591466002543,302.28494841879154L323.1027907455676,270.58758145231445L324.24643489088083,267.18073785552326L325.39007903619415,275.5443494195118L326.53372318150736,241.0604968218919L327.6773673268206,289.6761237306961L328.8210114721339,293.53582268823374L329.96465561744714,276.2189018143187L331.1082997627604,306.5134640216717L332.2519439080737,280.93047910559005L333.395588053387,305.0827076919541L334.53923219870023,313.18749078705184L335.6828763440135,326.09268797479575L336.82652048932675,335.49157956140675L337.97016463463996,332.85204814355023L339.1138087799533,330.0856340971473L340.25745292526653,331.500793178097L341.4010970705798,334.24220093976925L342.54474121589305,336.8332017533238L343.6883853612063,327.50700644111765L344.8320295065196,335.86709256292426L345.9756736518329,343.01199558824845L347.11931779714615,352.26625722533686L348.2629619424594,351.19572111173136L349.4066060877726,357.4130315785644L350.5502502330859,360.90687881952636L351.69389437839914,357.3262502247963L352.83753852371245,350.68363132434007L353.9811826690257,357.1057777061296L355.124826814339,356.70136283072287L356.26847095965223,355.2760187097898L357.4121151049655,339.75539181068626L358.55575925027875,338.24880396277155L359.69940339559207,340.4198587628142L360.8430475409053,342.668647799391L361.98669168621853,343.30830410392366L363.1303358315318,334.7036143994068L364.27397997684506,347.51776755116964L365.4176241221583,348.8197053855066L366.5612682674716,352.9124146340381L367.7049124127849,357.26035249625943L368.84855655809815,343.5479215130838L369.9922007034114,348.3301100757576L371.1358448487247,353.0917355264643L372.2794889940379,335.6063534310373L373.42313313935114,347.34979385273454L374.56677728466445,350.1381554012724L375.7104214299777,334.30728343419776L376.854065575291,346.333812815493L377.99770972060423,349.5285667789275L379.1413538659175,346.95117741337L380.28499801123075,338.3085726199013L381.4286421565441,316.8018160433118L382.57228630185733,329.68051736337856L383.71593044717054,277.7999002926924L384.8595745924838,300.6024309736997L386.00321873779706,320.9070424781625L387.1468628831103,328.12248955894637L388.29050702842363,327.9575160637984L389.4341511737369,329.75084427981204L390.57779531905015,332.48261448338485L391.7214394643634,346.1851676015565L392.8650836096767,339.7412790459157L394.00872775498993,331.8537822471886L395.1523719003032,338.238619007429L396.29601604561645,302.3309624884225L397.4396601909297,312.7191388606219L398.583304336243,274.00962724775906L399.72694848155624,269.70704341106557L400.8705926268695,289.5967018271407L402.0142367721828,288.75738876334447L403.1578809174961,314.27309523022495L404.30152506280933,305.6920761574352L405.44516920812254,300.0703866354858L406.5888133534358,320.5878158752342L407.73245749874906,331.7155782233942L408.8761016440624,322.7806590491952L410.01974578937563,336.57936971483787L411.1633899346889,331.13933184423087L412.30703408000215,345.3791980180641L413.4506782253154,349.19233693960797L414.5943223706287,356.2110010752903L415.73796651594193,360.42219955669975L416.8816106612552,338.34885857521397L418.02525480656846,313.51444106857014L419.1688989518817,326.05231910456894L420.312543097195,342.3269903742669L421.45618724250824,348.0706294707431L422.5998313878215,355.5379765939714L423.7434755331348,352.4491356154987L424.8871196784481,348.4669796761749L426.03076382376133,332.8314999208637L427.1744079690746,342.3733351987011L428.3180521143878,285.6521300330237L429.46169625970106,317.1407207747886L430.6053404050144,320.89537671502814L431.74898455032763,293.10771230867095L432.8926286956409,295.8313148741565L434.03627284095415,310.4751235660269L435.1799169862674,324.7018066813186L436.3235611315807,330.8724261591156L437.467205276894,342.1440470982035L438.61084942220725,347.0147073485538L439.75449356752046,349.7005644596262L440.8981377128337,317.0139180512883L442.041781858147,335.01163742919607L443.18542600346024,340.60641019490913L444.32907014877355,351.05944502847103L445.4727142940868,357.33126592860816L446.6163584394001,353.28857017714296L447.76000258471333,356.53988966557114L448.9036467300266,358.0176032803524L450.04729087533985,357.7215362535321L451.1909350206531,359.19966931140465L452.3345791659664,340.4538088976905L453.47822331127963,325.658207062395L454.6218674565929,330.97318830948586L455.76551160190616,312.63712449620033L456.9091557472194,325.0528510828714L458.05279989253273,329.4272795260827L459.196444037846,331.1057804354582L460.34008818315925,344.8859890945249L461.4837323284725,333.0482959632517L462.6273764737857,334.6976245325865L463.771020619099,346.3314784353884L464.91466476441224,332.02327725466733L466.05830890972555,335.73838658140045L467.2019530550388,329.68858580761724L468.3455972003521,330.55294708696556L469.48924134566533,324.2119317195783L470.6328854909786,329.6323450255202L471.77652963629185,338.5615299483926L472.9201737816051,348.1767436065965L474.0638179269184,305.4553687782693L475.20746207223164,300.40144028626185L476.3511062175449,313.453737852428L477.49475036285816,326.01589717488366L478.6383945081714,323.8550921637071L479.78203865348473,331.3105536050999L480.925682798798,323.9568785130455L482.06932694411125,325.9312275145335L483.2129710894245,333.2658519330091L484.3566152347377,341.4512512102994L485.500259380051,336.6643901720236L486.6439035253643,332.60957835336916L487.78754767067755,330.6497693404521L488.9311918159908,345.08546051579685L490.0748359613041,329.38335418981L491.21848010661733,335.81020601645065L492.3621242519306,347.47210540398254L493.5057683972439,242.82281856345895L494.6494125425572,290.2604386973607L495.7930566878704,303.5845122728824L496.93670083318364,317.2558933575027L498.0803449784969,297.3105763508764L499.22398912381016,253.88369394157283L500.3676332691234,283.1776996542365L501.51127741443673,290.81946343804697L502.65492155974994,293.98528747350645L503.79856570506325,322.6136933173538L504.94220985037657,334.58687796263064L506.0858539956898,347.4477256891039L507.22949814100303,352.08922681619646L508.37314228631624,299.99707041248183L509.51678643162955,321.48998229798303L510.6604305769429,292.0452414236171L511.8040747222561,308.67655757397887L512.9477188675694,308.72070762040823L514.0913630128825,299.75871416102933L515.2350071581959,321.1104295079737L516.3786513035091,336.9964662249318L517.5222954488224,293.30680444910104L518.6659395941357,322.6796815809862L519.809583739449,316.88604298547483L520.9532278847622,318.14064061092404L522.0968720300755,309.4318376206815L523.2405161753887,314.8508125877371L524.3841603207019,319.28489276365946L525.5278044660153,315.3222477733544L526.6714486113285,331.39470583191996L527.8150927566418,337.4900950799922L528.958736901955,343.51271902021364L530.1023810472683,338.13780989711L531.2460251925816,341.53595751910626L532.3896693378949,344.99408032713086L533.5333134832081,311.11502006299963L534.6769576285214,323.42997130553766L535.8206017738346,314.26120931141423L536.9642459191479,315.6195842499365L538.1078900644611,324.71347558287295L539.2515342097744,331.3525055783238L540.3951783550878,338.6474701235236L541.5388225004009,326.2301770718595L542.6824666457143,315.23171565379397L543.8261107910274,330.63076944277026L544.9697549363408,333.72018669857323L546.113399081654,279.9871628546714L547.2570432269672,306.17249121536753L548.4006873722806,312.6586657054109L549.5443315175937,303.06764516858215L550.6879756629071,319.31116348630053L551.8316198082202,302.5649020934977L552.9752639535336,292.9902233360916L554.1189080988469,268.32229295062376L555.2625522441601,301.30242062517914L556.4061963894734,327.477051286633L557.5498405347867,342.7087516052298L558.6934846800999,339.5477417612221L559.8371288254131,336.94151873740407L560.9807729707264,330.1739260620816L562.1244171160397,325.1672143003369L563.268061261353,327.60358514345955L564.4117054066662,317.71153377071863L565.5553495519795,282.20892305484875L566.6989936972927,313.6555623530568L567.8426378426061,322.8254453273317L568.9862819879193,332.5850778163771L570.1299261332325,321.41004649188255L571.2735702785458,321.0915817539065L572.417214423859,332.4909158288732L573.5608585691723,287.2919276635366L574.7045027144856,313.3938185703403L575.8481468597989,278.19905969979493L576.9917910051121,287.83227946538204L578.1354351504255,275.39870531112354L579.2790792957386,275.0347319927025L580.4227234410519,287.11637803681555L581.5663675863652,276.6249377279483L582.7100117316784,308.17631980467627L583.8536558769918,322.6129073070948L584.9973000223049,334.11332827819956L586.1409441676183,341.25011990000024L587.2845883129314,349.08028046014766L588.4282324582448,337.9302611740034L589.571876603558,338.8094988547265L590.7155207488713,319.94084025386053L591.8591648941846,300.10423968438005L593.0028090394977,257.21566521563966L594.1464531848111,206.64592142492617L595.2900973301244,210.83877486461728L596.4337414754376,251.9103503078937L597.5773856207509,237.76089315525994L598.7210297660641,283.91173690451205L599.8646739113774,305.92530621475606L601.0083180566907,311.0911204702172L602.1519622020039,321.28678019762793L603.2956063473172,272.05404087582866L604.4392504926304,299.75684475409724L605.5828946379437,322.7650811377791L606.726538783257,299.4333938233532L607.8701829285702,264.14586791229544L609.0138270738835,303.2908073458004L610.1574712191967,328.6700833190058L611.3011153645101,332.78031406345235L612.4447595098233,339.0310771363251L613.5884036551366,334.97574668850126L614.7320478004498,320.479057423779L615.875691945763,296.8790843992641L617.0193360910764,307.3191606548867L618.1629802363896,310.5081988994687L619.3066243817029,220.40793562161284L620.4502685270161,246.29797288347655L621.5939126723295,239.36078652250347L622.7375568176426,209.41571943989925L623.881200962956,260.28153957943715L625.0248451082692,289.8548755066087L626.1684892535824,199.97361425521157L627.3121333988958,249.17587856845512L628.4557775442089,269.9452927083026L629.5994216895223,291.3954246794475L630.7430658348355,316.32899485816245L631.8867099801488,325.6122000260841L633.030354125462,319.5917102090848L634.1739982707753,312.90440881009374L635.3176424160886,328.99784629741237L636.4612865614018,292.05571807965646L637.6049307067151,192.77871439007933L638.7485748520284,232.08583053593443L639.8922189973416,236.2738990141477L641.0358631426549,275.2137521282972L642.1795072879681,211.76783663321348L643.3231514332814,267.36974683473295L644.4667955785948,272.81928633738397L645.6104397239079,193.53688537988154L646.7540838692213,262.8177301394545L647.8977280145344,243.1226258585074L649.0413721598477,222.79015788097828L650.185016305161,280.36969364011253L651.3286604504742,310.42317335197487L652.4723045957876,326.0898707877142L653.6159487411007,282.0320664040145L654.7595928864141,233.36271409484118L655.9032370317273,284.3478369770522L657.0468811770406,269.5234151919208L658.1905253223538,233.19023358085687L659.334169467667,192.94027956146994L660.4778136129804,158.61912846691223L661.6214577582936,213.009313216861L662.7651019036069,156.70474535101656L663.9087460489201,174.96059324182644L665.0523901942335,205.78338126388772L666.1960343395467,253.37135589107424L667.33967848486,252.12022173602298L668.4833226301732,274.7869061176347L669.6269667754865,205.12517497009532L670.7706109207998,196.443601760864L671.9142550661129,241.61747317167715L673.0578992114263,214.08127797733266L674.2015433567395,255.03854737121193L675.3451875020528,220.24161018395114L676.488831647366,197.94421363676776L677.6324757926793,192.13502496086747L678.7761199379926,255.11698175304977L679.919764083306,290.06768735870554L681.0634082286191,229.19560318041934L682.2070523739324,251.57057341876043L683.3506965192456,230.93393392592154L684.4943406645589,187.3287970640283L685.6379848098721,202.08696871773216L686.7816289551854,179.24564046548895L687.9252731004988,143.77925191346517L689.0689172458119,232.72661102046686L690.2125613911253,246.82954598779267L691.3562055364384,214.60659223648614L692.4998496817518,215.3786383124154L693.6434938270651,232.87267677589483L694.7871379723782,198.89976049607554L695.9307821176916,256.5738936436588L697.0744262630047,281.71681196669664L698.2180704083181,238.85049837175774L699.3617145536313,121.3535630293271L700.5053586989446,118.50556701728019L701.6490028442579,109.46405919678014L702.7926469895712,207.8797926859754L703.9362911348844,271.42347452311077L705.0799352801976,216.82638028337345L706.2235794255109,237.05286850639882L707.3672235708241,243.03874642263116L708.5108677161375,251.59759299426443L709.6545118614507,219.59627179260946L710.798156006764,213.64166526333332L711.9418001520772,186.65153647112527L713.0854442973905,197.18637061837205L714.2290884427038,178.6706719972509L715.372732588017,216.05175584782774L716.5163767333303,262.3708491110919L717.6600208786435,295.8392420083576L718.8036650239568,309.7702627291341L719.94730916927,225.1690327804437L721.0909533145833,262.400817370492L722.2345974598966,286.6322004376234L723.37824160521,247.47666839362105L724.5218857505231,279.09694528632764L725.6655298958365,310.3691414571173L726.8091740411496,325.3478345333863L727.9528181864629,327.47541824415134L729.0964623317763,334.9019834881933L730.2401064770894,343.1425472608233L731.3837506224028,352.58112726801954L732.5273947677159,356.11542392009704L733.6710389130293,358.94561902875694L734.8146830583424,356.8591114677481L735.9583272036558,353.2418165397647L737.1019713489691,346.34065880021865L738.2456154942822,351.66152572200315L739.3892596395956,350.12326509231775L740.5329037849087,356.5330189277784L741.6765479302221,360.6154102681926L742.8201920755354,360.69945468106306L743.9638362208486,358.85756901568294L745.1074803661619,356.5697424207659L746.2511245114752,358.0355149334693L747.3947686567884,361.5169078716071L748.5384128021017,363.369204595352L749.6820569474149,358.5671066511539L750.8257010927282,361.5993238630801L751.9693452380415,363.65519322937365L753.1129893833547,361.8137073403583L754.256633528668,363.07420619832715L755.4002776739812,351.2939364388049L756.5439218192945,351.0854067180878L757.6875659646078,357.34684294237826L758.8312101099211,361.10370467695253L759.9748542552343,356.7347286218386L761.1184984005475,356.00565530187265L762.2621425458608,354.3855161142041L763.4057866911741,356.7249791495322L764.5494308364874,360.73058640124486L765.6930749818006,362.18779459572124L766.836719127114,360.93326816016685L767.9803632724271,362.3094036510745L769.1240074177405,362.8985459064812L770.2676515630536,356.392399124729L771.411295708367,354.8541014470557L772.5549398536803,358.42536458406994L773.6985839989934,355.8373416835225L774.8422281443068,346.0056615733709L775.9858722896199,354.29899585554807L777.1295164349333,359.2749964248544L778.2731605802466,360.3682844533358L779.4168047255598,362.91656958352706L780.5604488708731,364.20900162250393L781.7040930161863,364.9844608458901L782.8477371614996,365.68627541905965L783.9913813068127,366.10736416296135L785.1350254521261,366.3600174093023L786.2786695974394,335.7615342691926L787.4223137427526,346.96982427735213L788.5659578880659,353.9313373213856L789.7096020333792,327.83124813816704L790.8532461786924,289.22690783186897L791.9968903240058,279.07395080066937L793.1405344693189,295.21684626090297L794.2841786146322,307.7410520066968L795.4278227599455,331.34023011554365L796.5714669052587,339.8228000415445L797.715111050572,349.64312277990103L798.8587551958852,280.31590197709374L800.0023993411986,237.7734133388582L801.1460434865118,285.81156132777346L802.2896876318251,238.4688795187502L803.4333317771383,289.7769266227757L804.5769759224517,242.03079389144057L805.7206200677648,291.4409971681143L806.8642642130781,319.90442393842955L808.0079083583914,338.63825327458323L809.1515525037046,330.00927158870013L810.295196649018,339.49730300371397L811.4388407943311,336.43817740462356L812.5824849396445,307.1641735051843L813.7261290849577,276.3535849738038L814.869773230271,303.9923444868469L816.0134173755843,322.70445154691305L817.1570615208974,332.0394034698503L818.3007056662108,339.76922597585286L819.4443498115239,333.9994017573911L820.5879939568373,324.624031247869L821.7316381021506,333.42769032956164L822.8752822474638,338.0002686611639L824.0189263927771,345.7111354820191L825.1625705380903,354.122280200737L826.3062146834036,358.22281087541654L827.449858828717,358.0811998497084L828.5935029740301,325.82692391154245L829.7371471193434,280.6916030826224L830.8807912646566,315.110560761099L832.0244354099699,326.77345188094847L833.1680795552832,272.7441144553051L834.3117237005964,303.2458964105746L835.4553678459098,328.6431367578703L836.5990119912229,274.10246442059605L837.7426561365363,310.9205385247453L838.8863002818495,285.7035751596745L840.0299444271627,235.3290803090994L841.1735885724761,259.74490143958667L842.3172327177892,295.2098295620057L843.4608768631026,259.9559560815223L844.6045210084158,302.66917256043894L845.7481651537291,327.5874853303755L846.8918092990423,343.01155107061305L848.0354534443557,351.08329531906656L849.1790975896689,342.20707759814616L850.3227417349821,326.7101682826684L851.4663858802954,280.27539354874676L852.6100300256086,279.3799791701032L853.753674170922,258.97345125534173L854.8973183162351,234.90258254959468L856.0409624615485,267.29479107543136L857.1846066068617,241.7876987547509L858.328250752175,245.8796445716424L859.4718948974883,243.84057031815908L860.6155390428015,208.55550413022556L861.7591831881148,163.73056050368518L862.902827333428,183.90686311618364L864.0464714787413,235.98774229797132L865.1901156240546,286.8690100554815L866.3337597693678,280.26114156535266L867.4774039146811,276.769498549551L868.6210480599943,277.9860592879992L869.7646922053076,286.9948621008912L870.908336350621,224.5134395560771L872.0519804959341,248.5247362050173L873.1956246412474,293.44505024315794L874.3392687865606,316.1395359615618L875.4829129318739,336.3793204884626L876.6265570771873,348.5231912046031L877.7702012225004,349.8960376558424L878.9138453678138,318.0773581255692L880.0574895131269,330.20930357359515L881.2011336584403,337.96154892068637L882.3447778037535,326.7647805067084L883.4884219490668,342.75446721555056L884.6320660943801,352.3482792408559L885.7757102396932,356.2122541429367L886.9193543850066,358.5306390841851L888.0629985303198,293.9272781294874L889.2066426756331,315.2461774976705L890.3502868209464,322.12404114013526L891.4939309662597,335.2392428128507L892.6375751115729,346.8929884426848L893.7812192568862,290.96585140992977L894.9248634021994,290.5250346695691L896.0685075475126,307.7644335215501L897.212151692826,329.46194671135316L898.3557958381392,293.04379544543434L899.4994399834525,263.62365543347335L900.6430841287657,302.50440178023155L901.786728274079,322.75784207949505L902.9303724193923,339.16760896353355L904.0740165647055,340.0249856067202L905.2176607100188,348.34519988417964L906.3613048553322,354.04694556806874L907.5049490006453,353.44682931305954L908.6485931459586,353.5598376383296L909.7922372912718,322.8775675455774L910.9358814365851,335.6913586561159L912.0795255818985,274.07369485506297L913.2231697272116,306.8821131200829L914.366813872525,324.9113908051302L915.5104580178381,339.04050396408786L916.6541021631515,350.11990128997826L917.7977463084646,352.74637602016986L918.9413904537779,351.9568704669068L920.0850345990913,332.08696592564917L921.2286787444044,313.7784691441739L922.3723228897178,308.23376897545825L923.5159670350309,331.6358602968005L924.6596111803443,339.2905610328852L925.8032553256576,334.18528086988607L926.9468994709708,347.20676743345723L928.0905436162841,302.9810707612834L929.2341877615972,326.59192905519313L930.3778319069106,332.2430386225781L931.5214760522238,339.18178995007617L932.6651201975371,348.3123605684688L933.8087643428504,355.6830152526068L934.9524084881637,355.37462728033364L936.0960526334769,292.5067491254521L937.2396967787902,321.4900312693834L938.3833409241034,336.27807112522635L939.5269850694168,343.0220436864919L940.67062921473,295.73945573034814L941.8142733600432,280.8526281875166L942.9579175053565,315.2071758240355L944.1015616506697,291.82364312631563L945.245205795983,296.24356856043227L946.3888499412963,274.2954637505708L947.5324940866096,310.09018196617905" style="fill: none;" fill="none"></path></g></g></g></g><g opacity="0.2"><g><g><g><path stroke="rgb(255, 112, 67)" stroke-width="2px" d="M32.61717783599861,305.83019470082974L33.76082198131187,246.69543491637916L34.90446612662514,307.01288989651874L36.0481102719384,182.82989434917252L37.191754417251666,228.955006981044L38.335398562564926,322.97927503832045L39.47904270787819,150.8971240655692L40.62268685319145,366.7389972788139L41.76633099850471,239.00791614440058L42.90997514381799,53.324770421225686L44.05361928913125,208.8491886543308L45.19726343444451,239.00791614440058L46.340907579757776,245.51273972069015L47.484551725071036,134.93073892376754L48.628195870384296,276.854162406449L49.77184001569756,292.8205475482506L50.91548416101083,305.23884710298523L52.05912830632409,347.22452654994515L53.20277245163735,341.9023981693446L54.34641659695062,288.0897667654946L55.490060742263886,239.00791614440058L56.633704887577146,240.7819589379341L57.77734903289041,269.1666436344704L58.92099317820367,149.12308127203568L60.06463732351693,338.3543125822776L61.2082814688302,301.6907615159182L62.35192561414347,366.7389972788139L63.495569759456735,233.68578776380005L64.63921390476999,335.3975745930551L65.78285805008326,347.81587414778966L66.92650219539651,156.81060004401425L68.07014634070978,254.97430128620226L69.21379048602304,320.02253704909793L70.3574346313363,279.219552797827L71.50107877664958,359.6428261046798L72.64472292196284,215.94535982846483L73.7883670672761,225.99826899182145L74.93201121258936,236.05117815517806L76.07565535790263,317.0657990598754L77.2192995032159,129.01726294532244L78.36294364852915,363.78225928959137L79.50658779384243,366.7389972788139L80.65023193915567,328.301403418921L81.79387608446895,243.7386969271566L82.93752022978222,282.17629078704954L84.08116437509547,266.2099056452479L85.22480852040874,360.23417370252434L86.368452665722,363.78225928959137L87.51209681103526,330.07544621245455L88.65574095634854,336.5802697887441L89.79938510166178,363.19091169174686L90.94302924697506,300.5080663202292L92.08667339228832,308.7869326900523L93.23031753760158,366.7389972788139L94.37396168291484,294.59459034178417L95.51760582822811,334.8062269952106L96.66124997354137,290.4551571568726L97.80489411885463,324.75331783185396L98.94853826416791,356.68608811545727L100.09218240948115,358.4601309089908L101.23582655479443,366.1476496809694L102.3794707001077,366.7389972788139L103.52311484542095,321.79657984263144L104.66675899073422,332.44083660383257L105.81040313604748,328.301403418921L106.95404728136074,337.7629649844331L108.09769142667402,309.9696278857413L109.24133557198728,357.27743571330177L110.38497971730054,357.8687833111463L111.5286238626138,353.13800252839025L112.67226800792707,233.09444016595555L113.81591215324033,315.29175626634185L114.9595562985536,366.7389972788139L116.10320044386685,333.6235317995216L117.24684458918011,356.68608811545727L118.39048873449339,318.2484942555644L119.53413287980665,331.25814140814356L120.67777702511991,344.85913615856714L121.82142117043318,358.4601309089908L122.96506531574643,318.2484942555644L124.1087094610597,328.301403418921L125.25235360637296,351.95530733270124L126.39599775168624,328.301403418921L127.5396418969995,334.2148793973661L128.68328604231274,311.1523230814303L129.82693018762603,343.08509336503363L130.9705743329393,351.36395973485673L132.11421847825255,329.48409861461005L133.2578626235658,366.7389972788139L134.40150676887907,351.95530733270124L135.54515091419233,351.36395973485673L136.68879505950562,338.9456601801221L137.83243920481888,347.22452654994515L138.97608335013211,355.50339291976826L140.1197274954454,333.03218420167707L141.26337164075866,330.07544621245455L142.40701578607192,291.0465047547171L143.55065993138518,335.9889221908996L144.69430407669844,343.67644096287813L145.8379482220117,338.3543125822776L146.981592367325,358.4601309089908L148.12523651263825,354.91204532192376L149.26888065795148,325.34466542969847L150.41252480326474,366.7389972788139L151.55616894857803,328.301403418921L152.6998130938913,341.9023981693446L153.84345723920455,341.3110505715001L154.9871013845178,363.78225928959137L156.13074552983107,356.68608811545727L157.27438967514433,322.38792744047595L158.41803382045762,365.5563020831249L159.56167796577088,330.66679381029905L160.70532211108412,360.82552130036885L161.8489662563974,354.32069772407925L162.99261040171066,351.95530733270124L164.13625454702392,281.58494318920503L165.2798986923372,361.41686889821335L166.42354283765044,268.5752960366259L167.5671869829637,309.9696278857413L168.710831128277,353.13800252839025L169.85447527359025,309.9696278857413L170.9981194189035,298.7340235266957L172.14176356421677,259.1137344711138L173.28540770953003,309.9696278857413L174.4290518548433,350.18126453916767L175.57269600015658,350.18126453916767L176.71634014546984,347.22452654994515L177.85998429078307,338.9456601801221L179.00362843609636,353.13800252839025L180.14727258140962,359.0514785068353L181.29091672672288,327.7100558210765L182.43456087203617,326.5273606253875L183.5782050173494,365.5563020831249L184.72184916266266,366.7389972788139L185.86549330797595,349.58991694132317L187.0091374532892,305.23884710298523L188.15278159860247,353.13800252839025L189.29642574391573,365.5563020831249L190.440069889229,351.36395973485673L191.58371403454225,302.2821091137627L192.72735817985554,356.09474051761276L193.8710023251688,312.92636587496384L195.01464647048203,362.00821649605786L196.15829061579532,314.10906107065284L197.30193476110858,321.79657984263144L198.44557890642184,341.3110505715001L199.5892230517351,349.58991694132317L200.73286719704836,273.89742441722643L201.87651134236162,303.4648043094517L203.02015548767488,354.91204532192376L204.16379963298817,316.4744514620309L205.30744377830143,299.3253711245402L206.45108792361466,342.4937457671891L207.59473206892795,306.42154229867424L208.7383762142412,293.4118951460951L209.88202035955447,365.5563020831249L211.02566450486776,311.1523230814303L212.169308650181,322.97927503832045L213.31295279549425,313.51771347280834L214.45659694080754,337.7629649844331L215.6002410861208,331.84948900598806L216.74388523143406,325.93601302754297L217.88752937674732,311.1523230814303L219.03117352206058,338.3543125822776L220.17481766737384,366.7389972788139L221.31846181268713,347.22452654994515L222.46210595800036,296.3686331353177L223.60575010331362,350.77261213701223L224.7493942486269,280.99359559136053L225.89303839394017,299.3253711245402L227.03668253925343,261.4791248624918L228.1803266845667,323.57062263616496L229.32397082987995,311.7436706792748L230.46761497519321,333.03218420167707L231.6112591205065,345.45048375641164L232.75490326581976,316.4744514620309L233.898547411133,328.301403418921L235.04219155644628,354.91204532192376L236.18583570175954,366.1476496809694L237.3294798470728,346.63317895210065L238.4731239923861,320.02253704909793L239.61676813769932,360.23417370252434L240.76041228301258,331.84948900598806L241.90405642832587,327.118708223232L243.04770057363913,356.09474051761276L244.1913447189524,344.85913615856714L245.33498886426565,336.5802697887441L246.4786330095789,309.9696278857413L247.62227715489217,364.37360688743587L248.76592130020543,311.7436706792748L249.90956544551872,282.17629078704954L251.05320959083195,330.66679381029905L252.19685373614521,272.7147292215374L253.34049788145848,302.2821091137627L254.4841420267718,231.91174497026654L255.62778617208505,324.75331783185396L256.7714303173983,318.8398418534089L257.9150744627116,333.6235317995216L259.05871860802483,320.61388464694244L260.20236275333804,346.63317895210065L261.34600689865135,290.4551571568726L262.4896510439646,252.01756329697974L263.6332951892779,297.5513283310067L264.77693933459113,259.7050820689583L265.9205834799044,309.3782802878968L267.06422762521765,340.7197029736556L268.20787177053097,291.0465047547171L269.35151591584423,360.23417370252434L270.49516006115743,261.4791248624918L271.6388042064707,145.57499568496866L272.78244835178396,325.93601302754297L273.9260924970972,314.10906107065284L275.0697366424105,256.15699648189127L276.2133807877238,366.7389972788139L277.35702493303705,304.0561519072962L278.5006690783503,347.81587414778966L279.6443132236636,262.0704724603363L280.78795736897683,342.4937457671891L281.93160151429004,307.60423749436325L283.07524565960335,348.99856934347866L284.2188898049166,321.20523224478694L285.3625339502299,346.63317895210065L286.50617809554313,325.93601302754297L287.6498222408564,366.7389972788139L288.79346638616965,349.58991694132317L289.937110531483,311.7436706792748L291.08075467679623,351.95530733270124L292.2243988221095,351.95530733270124L293.3680429674227,343.08509336503363L294.51168711273596,302.2821091137627L295.6553312580492,279.219552797827L296.79897540336253,342.4937457671891L297.9426195486758,317.0657990598754L299.08626369398905,335.3975745930551L300.2299078393023,351.95530733270124L301.3735519846156,366.7389972788139L302.51719612992883,309.9696278857413L303.66084027524215,294.59459034178417L304.80448442055535,342.4937457671891L305.9481285658686,340.1283553758111L307.0917727111819,266.8012532430924L308.23541685649514,217.12805502415384L309.3790610018084,296.3686331353177L310.5227051471217,284.54168117842755L311.666349292435,225.40692139397694L312.80999343774823,326.5273606253875L313.9536375830615,294.0032427439396L315.09728172837475,308.7869326900523L316.24092587368796,247.28678251422366L317.3845700190013,336.5802697887441L318.52821416431453,326.5273606253875L319.6718583096278,153.2625144569472L320.81550245494105,296.9599807331622L321.9591466002543,354.32069772407925L323.1027907455676,223.04153100259893L324.24643489088083,262.0704724603363L325.39007903619415,288.0897667654946L326.53372318150736,189.3347179254621L327.6773673268206,362.59956409390236L328.8210114721339,299.3253711245402L329.96465561744714,250.24352050344623L331.1082997627604,351.95530733270124L332.2519439080737,242.5560017314676L333.395588053387,341.3110505715001L334.53923219870023,325.34466542969847L335.6828763440135,345.45048375641164L336.82652048932675,349.58991694132317L337.97016463463996,328.8927510167655L339.1138087799533,325.93601302754297L340.25745292526653,333.6235317995216L341.4010970705798,338.3543125822776L342.54474121589305,340.7197029736556L343.6883853612063,313.51771347280834L344.8320295065196,348.40722174563416L345.9756736518329,353.72935012623475L347.11931779714615,366.1476496809694L348.2629619424594,349.58991694132317L349.4066060877726,366.7389972788139L350.5502502330859,366.1476496809694L351.69389437839914,351.95530733270124L352.83753852371245,340.7197029736556L353.9811826690257,366.7389972788139L355.124826814339,356.09474051761276L356.26847095965223,353.13800252839025L357.4121151049655,316.4744514620309L358.55575925027875,335.9889221908996L359.69940339559207,343.67644096287813L360.8430475409053,346.04183135425615L361.98669168621853,344.26778856072264L363.1303358315318,321.79657984263144L364.27397997684506,366.7389972788139L365.4176241221583,350.77261213701223L366.5612682674716,359.0514785068353L367.7049124127849,363.78225928959137L368.84855655809815,322.97927503832045L369.9922007034114,355.50339291976826L371.1358448487247,360.23417370252434L372.2794889940379,309.3782802878968L373.42313313935114,364.9649544852804L374.56677728466445,354.32069772407925L375.7104214299777,310.5609754835858L376.854065575291,364.37360688743587L377.99770972060423,354.32069772407925L379.1413538659175,343.08509336503363L380.28499801123075,325.34466542969847L381.4286421565441,284.54168117842755L382.57228630185733,348.99856934347866L383.71593044717054,199.97897468666315L384.8595745924838,334.8062269952106L386.00321873779706,351.36395973485673L387.1468628831103,338.9456601801221L388.29050702842363,327.7100558210765L389.4341511737369,332.44083660383257L390.57779531905015,336.5802697887441L391.7214394643634,366.7389972788139L392.8650836096767,330.07544621245455L394.00872775498993,320.02253704909793L395.1523719003032,347.81587414778966L396.29601604561645,248.46947770991267L397.4396601909297,328.301403418921L398.583304336243,215.94535982846483L399.72694848155624,263.2531676560253L400.8705926268695,319.43118945125343L402.0142367721828,287.49841916765007L403.1578809174961,352.54665493054574L404.30152506280933,292.8205475482506L405.44516920812254,291.6378523525616L406.5888133534358,351.36395973485673L407.73245749874906,348.40722174563416L408.8761016440624,309.3782802878968L410.01974578937563,357.27743571330177L411.1633899346889,322.97927503832045L412.30703408000215,366.7389972788139L413.4506782253154,354.91204532192376L414.5943223706287,366.7389972788139L415.73796651594193,366.7389972788139L416.8816106612552,305.23884710298523L418.02525480656846,276.2628148086045L419.1688989518817,344.85913615856714L420.312543097195,366.7389972788139L421.45618724250824,356.68608811545727L422.5998313878215,366.7389972788139L423.7434755331348,347.81587414778966L424.8871196784481,342.4937457671891L426.03076382376133,309.3782802878968L427.1744079690746,356.68608811545727L428.3180521143878,200.57032228450765L429.46169625970106,364.37360688743587L430.6053404050144,326.5273606253875L431.74898455032763,251.42621569913524L432.8926286956409,299.9167187223847L434.03627284095415,332.44083660383257L435.1799169862674,346.04183135425615L436.3235611315807,340.1283553758111L437.467205276894,359.0514785068353L438.61084942220725,354.32069772407925L439.75449356752046,353.72935012623475L440.8981377128337,267.9839484387814L442.041781858147,362.00821649605786L443.18542600346024,348.99856934347866L444.32907014877355,366.7389972788139L445.4727142940868,366.7389972788139L446.6163584394001,347.22452654994515L447.76000258471333,361.41686889821335L448.9036467300266,360.23417370252434L450.04729087533985,357.27743571330177L451.1909350206531,361.41686889821335L452.3345791659664,312.33501827711933L453.47822331127963,303.4648043094517L454.6218674565929,338.9456601801221L455.76551160190616,285.13302877627206L456.9091557472194,343.67644096287813L458.05279989253273,335.9889221908996L459.196444037846,333.6235317995216L460.34008818315925,365.5563020831249L461.4837323284725,315.29175626634185L462.6273764737857,337.1716173865886L463.771020619099,363.78225928959137L464.91466476441224,310.5609754835858L466.05830890972555,341.3110505715001L467.2019530550388,320.61388464694244L468.3455972003521,331.84948900598806L469.48924134566533,314.70040866849735L470.6328854909786,337.7629649844331L471.77652963629185,351.95530733270124L472.9201737816051,362.59956409390236L474.0638179269184,241.3733065357786L475.20746207223164,292.8205475482506L476.3511062175449,333.03218420167707L477.49475036285816,344.85913615856714L478.6383945081714,320.61388464694244L479.78203865348473,342.4937457671891L480.925682798798,312.92636587496384L482.06932694411125,328.8927510167655L483.2129710894245,344.26778856072264L484.3566152347377,353.72935012623475L485.500259380051,329.48409861461005L486.6439035253643,326.5273606253875L487.78754767067755,327.7100558210765L488.9311918159908,366.7389972788139L490.0748359613041,305.83019470082974L491.21848010661733,345.45048375641164L492.3621242519306,364.9649544852804L493.5057683972439,85.84888830267352L494.6494125425572,361.41686889821335L495.7930566878704,323.57062263616496L496.93670083318364,337.7629649844331L498.0803449784969,267.3926008409369L499.22398912381016,188.74337032761758L500.3676332691234,327.118708223232L501.51127741443673,302.2821091137627L502.65492155974994,298.7340235266957L503.79856570506325,365.5563020831249L504.94220985037657,352.54665493054574L506.0858539956898,366.7389972788139L507.22949814100303,359.0514785068353L508.37314228631624,221.85883580690987L509.51678643162955,353.72935012623475L510.6604305769429,247.87813011206816L511.8040747222561,333.6235317995216L512.9477188675694,308.7869326900523L514.0913630128825,286.31572397196106L515.2350071581959,353.13800252839025L516.3786513035091,360.82552130036885L517.5222954488224,227.77231178535496L518.6659395941357,366.7389972788139L519.809583739449,308.1955850922078L520.9532278847622,320.02253704909793L522.0968720300755,296.3686331353177L523.2405161753887,322.97927503832045L524.3841603207019,325.93601302754297L525.5278044660153,309.3782802878968L526.6714486113285,355.50339291976826L527.8150927566418,346.63317895210065L528.958736901955,352.54665493054574L530.1023810472683,330.07544621245455L531.2460251925816,346.63317895210065L532.3896693378949,350.18126453916767L533.5333134832081,260.2964296668028L534.6769576285214,341.9023981693446L535.8206017738346,300.5080663202292L536.9642459191479,317.6571466577199L538.1078900644611,338.3543125822776L539.2515342097744,341.3110505715001L540.3951783550878,349.58991694132317L541.5388225004009,307.60423749436325L542.6824666457143,298.7340235266957L543.8261107910274,353.72935012623475L544.9697549363408,338.3543125822776L546.113399081654,199.38762708881865L547.2570432269672,345.45048375641164L548.4006873722806,322.38792744047595L549.5443315175937,288.6811143633391L550.6879756629071,343.67644096287813L551.8316198082202,277.4455100042935L552.9752639535336,278.6282051999825L554.1189080988469,231.32039737242204L555.2625522441601,350.77261213701223L556.4061963894734,366.7389972788139L557.5498405347867,365.5563020831249L558.6934846800999,334.8062269952106L559.8371288254131,333.03218420167707L560.9807729707264,320.02253704909793L562.1244171160397,317.6571466577199L563.268061261353,331.25814140814356L564.4117054066662,302.8734567116072L565.5553495519795,228.955006981044L566.6989936972927,360.82552130036885L567.8426378426061,336.5802697887441L568.9862819879193,347.22452654994515L570.1299261332325,304.64749950514073L571.2735702785458,320.61388464694244L572.417214423859,349.58991694132317L573.5608585691723,219.49344541553185L574.7045027144856,352.54665493054574L575.8481468597989,225.40692139397694L576.9917910051121,302.2821091137627L578.1354351504255,256.7483440797358L579.2790792957386,274.48877201507094L580.4227234410519,305.23884710298523L581.5663675863652,260.8877772646473L582.7100117316784,355.50339291976826L583.8536558769918,344.26778856072264L584.9973000223049,351.36395973485673L586.1409441676183,351.95530733270124L587.2845883129314,360.82552130036885L588.4282324582448,321.20523224478694L589.571876603558,340.1283553758111L590.7155207488713,291.6378523525616L591.8591648941846,270.3493388301594L593.0028090394977,192.8828035125291L594.1464531848111,130.79130573885595L595.2900973301244,217.12805502415384L596.4337414754376,313.51771347280834L597.5773856207509,216.53670742630933L598.7210297660641,353.13800252839025L599.8646739113774,338.9456601801221L601.0083180566907,318.8398418534089L602.1519622020039,336.5802697887441L603.2956063473172,198.20493189312964L604.4392504926304,341.3110505715001L605.5828946379437,357.27743571330177L606.726538783257,264.4358628517143L607.8701829285702,211.2145790457088L609.0138270738835,362.00821649605786L610.1574712191967,366.7389972788139L611.3011153645101,338.9456601801221L612.4447595098233,348.40722174563416L613.5884036551366,328.8927510167655L614.7320478004498,298.7340235266957L615.875691945763,261.4791248624918L617.0193360910764,322.97927503832045L618.1629802363896,315.29175626634185L619.3066243817029,85.25754070482901L620.4502685270161,285.13302877627206L621.5939126723295,228.955006981044L622.7375568176426,164.4981188159928L623.881200962956,336.5802697887441L625.0248451082692,334.2148793973661L626.1684892535824,65.1517223781158L627.3121333988958,322.97927503832045L628.4557775442089,301.0994139180737L629.5994216895223,323.57062263616496L630.7430658348355,353.72935012623475L631.8867099801488,339.5370077779666L633.030354125462,310.5609754835858L634.1739982707753,302.8734567116072L635.3176424160886,353.13800252839025L636.4612865614018,236.64252575302257L637.6049307067151,43.86320885571358L638.7485748520284,291.0465047547171L639.8922189973416,242.5560017314676L641.0358631426549,333.6235317995216L642.1795072879681,116.59896339058784L643.3231514332814,350.77261213701223L644.4667955785948,280.99359559136053L645.6104397239079,74.6132839436279L646.7540838692213,366.7389972788139L647.8977280145344,213.57996943708682L649.0413721598477,192.2914559146846L650.185016305161,366.7389972788139L651.3286604504742,355.50339291976826L652.4723045957876,349.58991694132317L653.6159487411007,215.94535982846483L654.7595928864141,160.35868563108127L655.9032370317273,360.82552130036885L657.0468811770406,247.28678251422366L658.1905253223538,178.69046116426097L659.334169467667,132.56534853238946L660.4778136129804,107.13740182507573L661.6214577582936,294.59459034178417L662.7651019036069,72.24789355224989L663.9087460489201,202.34436507804122L665.0523901942335,252.01756329697974L666.1960343395467,324.75331783185396L667.33967848486,250.24352050344623L668.4833226301732,308.7869326900523L669.6269667754865,100.63257824878615L670.7706109207998,183.42124194701702L671.9142550661129,309.3782802878968L673.0578992114263,172.7769851858159L674.2015433567395,316.4744514620309L675.3451875020528,168.04620440305987L676.488831647366,164.4981188159928L677.6324757926793,183.42124194701702L678.7761199379926,349.58991694132317L679.919764083306,342.4937457671891L681.0634082286191,137.88747691299005L682.2070523739324,285.13302877627206L683.3506965192456,199.97897468666315L684.4943406645589,121.92109177118837L685.6379848098721,224.22422619828794L686.7816289551854,144.98364808712415L687.9252731004988,90.57966908542954L689.0689172458119,366.1476496809694L690.2125613911253,267.9839484387814L691.3562055364384,166.27216160952636L692.4998496817518,216.53670742630933L693.6434938270651,259.1137344711138L694.7871379723782,147.94038607634667L695.9307821176916,343.08509336503363L697.0744262630047,319.43118945125343L698.2180704083181,174.5510279793494L699.3617145536313,-54.89183998431888L700.5053586989446,114.23357299920983L701.6490028442579,95.90179746603012L702.7926469895712,355.50339291976826L703.9362911348844,366.7389972788139L705.0799352801976,134.93073892376754L706.2235794255109,267.3926008409369L707.3672235708241,252.01756329697974L708.5108677161375,264.4358628517143L709.6545118614507,171.5942899901269L710.798156006764,204.70975546941924L711.9418001520772,146.16634328281316L713.0854442973905,212.9886218392423L714.2290884427038,150.8971240655692L715.372732588017,272.1233816236929L716.5163767333303,331.84948900598806L717.6600208786435,346.04183135425615L718.8036650239568,330.66679381029905L719.94730916927,98.26718785740813L721.0909533145833,318.2484942555644L722.2345974598966,322.97927503832045L723.37824160521,188.74337032761758L724.5218857505231,326.5273606253875L725.6655298958365,357.27743571330177L726.8091740411496,347.81587414778966L727.9528181864629,330.66679381029905L729.0964623317763,346.04183135425615L730.2401064770894,355.50339291976826L731.3837506224028,366.7389972788139L732.5273947677159,361.41686889821335L733.6710389130293,363.19091169174686L734.8146830583424,353.72935012623475L735.9583272036558,347.81587414778966L737.1019713489691,335.9889221908996L738.2456154942822,359.6428261046798L739.3892596395956,347.81587414778966L740.5329037849087,366.1476496809694L741.6765479302221,366.7389972788139L742.8201920755354,360.82552130036885L743.9638362208486,356.09474051761276L745.1074803661619,353.13800252839025L746.2511245114752,360.23417370252434L747.3947686567884,366.7389972788139L748.5384128021017,366.1476496809694L749.6820569474149,351.36395973485673L750.8257010927282,366.1476496809694L751.9693452380415,366.7389972788139L753.1129893833547,359.0514785068353L754.256633528668,364.9649544852804L755.4002776739812,333.6235317995216L756.5439218192945,350.77261213701223L757.6875659646078,366.7389972788139L758.8312101099211,366.7389972788139L759.9748542552343,350.18126453916767L761.1184984005475,354.91204532192376L762.2621425458608,351.95530733270124L763.4057866911741,360.23417370252434L764.5494308364874,366.7389972788139L765.6930749818006,364.37360688743587L766.836719127114,359.0514785068353L767.9803632724271,364.37360688743587L769.1240074177405,363.78225928959137L770.2676515630536,346.63317895210065L771.411295708367,352.54665493054574L772.5549398536803,363.78225928959137L773.6985839989934,351.95530733270124L774.8422281443068,331.25814140814356L775.9858722896199,366.7389972788139L777.1295164349333,366.7389972788139L778.2731605802466,362.00821649605786L779.4168047255598,366.7389972788139L780.5604488708731,366.1476496809694L781.7040930161863,366.1476496809694L782.8477371614996,366.7389972788139L783.9913813068127,366.7389972788139L785.1350254521261,366.7389972788139L786.2786695974394,289.8638095590281L787.4223137427526,363.78225928959137L788.5659578880659,364.37360688743587L789.7096020333792,288.6811143633391L790.8532461786924,231.32039737242204L791.9968903240058,263.8445152538698L793.1405344693189,319.43118945125343L794.2841786146322,326.5273606253875L795.4278227599455,366.7389972788139L796.5714669052587,352.54665493054574L797.715111050572,364.37360688743587L798.8587551958852,176.32507077288292L800.0023993411986,173.9596803815049L801.1460434865118,357.8687833111463L802.2896876318251,167.45485680521537L803.4333317771383,366.7389972788139L804.5769759224517,170.4115947944379L805.7206200677648,365.5563020831249L806.8642642130781,362.59956409390236L808.0079083583914,366.7389972788139L809.1515525037046,317.0657990598754L810.295196649018,353.72935012623475L811.4388407943311,331.84948900598806L812.5824849396445,263.2531676560253L813.7261290849577,230.137702176733L814.869773230271,345.45048375641164L816.0134173755843,350.77261213701223L817.1570615208974,346.04183135425615L818.3007056662108,351.36395973485673L819.4443498115239,325.34466542969847L820.5879939568373,310.5609754835858L821.7316381021506,346.63317895210065L822.8752822474638,344.85913615856714L824.0189263927771,357.27743571330177L825.1625705380903,366.7389972788139L826.3062146834036,364.37360688743587L827.449858828717,357.8687833111463L828.5935029740301,277.4455100042935L829.7371471193434,212.9886218392423L830.8807912646566,366.7389972788139L832.0244354099699,344.26778856072264L833.1680795552832,191.7001083168401L834.3117237005964,348.99856934347866L835.4553678459098,366.7389972788139L836.5990119912229,192.2914559146846L837.7426561365363,366.1476496809694L838.8863002818495,247.87813011206816L840.0299444271627,159.76733803323677L841.1735885724761,296.3686331353177L842.3172327177892,348.40722174563416L843.4608768631026,207.07514586079728L844.6045210084158,366.7389972788139L845.7481651537291,364.9649544852804L846.8918092990423,366.1476496809694L848.0354534443557,363.19091169174686L849.1790975896689,328.8927510167655L850.3227417349821,303.4648043094517L851.4663858802954,210.6232314478643L852.6100300256086,278.036857602138L853.753674170922,228.3636593831995L854.8973183162351,198.79627949097414L856.0409624615485,315.88310386418635L857.1846066068617,203.52706027373023L858.328250752175,252.01756329697974L859.4718948974883,240.7819589379341L860.6155390428015,155.62790484832524L861.7591831881148,96.49314506387462L862.902827333428,214.17131703493132L864.0464714787413,314.10906107065284L865.1901156240546,363.19091169174686L866.3337597693678,270.3493388301594L867.4774039146811,271.5320340258484L868.6210480599943,279.8109003956715L869.7646922053076,300.5080663202292L870.908336350621,130.79130573885595L872.0519804959341,284.54168117842755L873.1956246412474,360.82552130036885L874.3392687865606,350.18126453916767L875.4829129318739,366.7389972788139L876.6265570771873,366.7389972788139L877.7702012225004,351.95530733270124L878.9138453678138,270.3493388301594L880.0574895131269,348.40722174563416L881.2011336584403,349.58991694132317L882.3447778037535,309.9696278857413L883.4884219490668,366.7389972788139L884.6320660943801,366.7389972788139L885.7757102396932,362.00821649605786L886.9193543850066,362.00821649605786L888.0629985303198,197.02223669744063L889.2066426756331,347.22452654994515L890.3502868209464,332.44083660383257L891.4939309662597,354.91204532192376L892.6375751115729,364.37360688743587L893.7812192568862,207.07514586079728L894.9248634021994,289.8638095590281L896.0685075475126,333.6235317995216L897.212151692826,362.00821649605786L898.3557958381392,238.41656854655608L899.4994399834525,219.49344541553185L900.6430841287657,360.82552130036885L901.786728274079,353.13800252839025L902.9303724193923,363.78225928959137L904.0740165647055,341.3110505715001L905.2176607100188,360.82552130036885L906.3613048553322,362.59956409390236L907.5049490006453,352.54665493054574L908.6485931459586,353.72935012623475L909.7922372912718,276.854162406449L910.9358814365851,354.91204532192376L912.0795255818985,181.64719915348348L913.2231697272116,356.09474051761276L914.366813872525,351.95530733270124L915.5104580178381,360.23417370252434L916.6541021631515,366.7389972788139L917.7977463084646,356.68608811545727L918.9413904537779,350.77261213701223L920.0850345990913,302.2821091137627L921.2286787444044,286.31572397196106L922.3723228897178,299.9167187223847L923.5159670350309,366.7389972788139L924.6596111803443,350.77261213701223L925.8032553256576,326.5273606253875L926.9468994709708,366.7389972788139L928.0905436162841,236.64252575302257L929.2341877615972,362.00821649605786L930.3778319069106,340.7197029736556L931.5214760522238,349.58991694132317L932.6651201975371,362.00821649605786L933.8087643428504,366.7389972788139L934.9524084881637,354.91204532192376L936.0960526334769,198.20493189312964L937.2396967787902,364.9649544852804L938.3833409241034,358.4601309089908L939.5269850694168,353.13800252839025L940.67062921473,224.81557379613244L941.8142733600432,258.5223868732693L942.9579175053565,366.7389972788139L944.1015616506697,256.7483440797358L945.245205795983,302.8734567116072L946.3888499412963,241.3733065357786L947.5324940866096,363.78225928959137" style="fill: none;" fill="none"></path></g></g></g></g></g></g><g transform="translate(40, 377)" clip-path="url(#clip_1)"><clipPath id="clip_1"><rect width="1000" height="23"></rect></clipPath><g><g><line x1="31.473533690685347" y1="0" x2="31.473533690685347" y2="5" style="visibility: inherit;" fill="rgb(0, 0, 0)" stroke="rgb(204, 204, 204)" stroke-width="1px"></line><line x1="143.15753225643377" y1="0" x2="143.15753225643377" y2="5" style="visibility: inherit;" fill="rgb(0, 0, 0)" stroke="rgb(204, 204, 204)" stroke-width="1px"></line><line x1="254.84153082218216" y1="0" x2="254.84153082218216" y2="5" style="visibility: inherit;" fill="rgb(0, 0, 0)" stroke="rgb(204, 204, 204)" stroke-width="1px"></line><line x1="366.52552938793053" y1="0" x2="366.52552938793053" y2="5" style="visibility: inherit;" fill="rgb(0, 0, 0)" stroke="rgb(204, 204, 204)" stroke-width="1px"></line><line x1="478.20952795367896" y1="0" x2="478.20952795367896" y2="5" style="visibility: inherit;" fill="rgb(0, 0, 0)" stroke="rgb(204, 204, 204)" stroke-width="1px"></line><line x1="589.8935265194274" y1="0" x2="589.8935265194274" y2="5" style="visibility: inherit;" fill="rgb(0, 0, 0)" stroke="rgb(204, 204, 204)" stroke-width="1px"></line><line x1="701.5775250851757" y1="0" x2="701.5775250851757" y2="5" style="visibility: inherit;" fill="rgb(0, 0, 0)" stroke="rgb(204, 204, 204)" stroke-width="1px"></line><line x1="813.2615236509241" y1="0" x2="813.2615236509241" y2="5" style="visibility: inherit;" fill="rgb(0, 0, 0)" stroke="rgb(204, 204, 204)" stroke-width="1px"></line><line x1="924.9455222166727" y1="0" x2="924.9455222166727" y2="5" style="visibility: inherit;" fill="rgb(0, 0, 0)" stroke="rgb(204, 204, 204)" stroke-width="1px"></line></g><g transform="translate(0, 8)"><text x="31.473533690685347" y="0" dx="0em" dy="0.95em" style="text-anchor: middle; visibility: inherit; font-family: Roboto, sans-serif; font-size: 12px; font-weight: 200;" fill="rgb(33, 33, 33)" stroke="none" stroke-width="1px">0</text><text x="143.15753225643377" y="0" dx="0em" dy="0.95em" style="text-anchor: middle; visibility: inherit; font-family: Roboto, sans-serif; font-size: 12px; font-weight: 200;" fill="rgb(33, 33, 33)" stroke="none" stroke-width="1px">100k</text><text x="254.84153082218216" y="0" dx="0em" dy="0.95em" style="text-anchor: middle; visibility: inherit; font-family: Roboto, sans-serif; font-size: 12px; font-weight: 200;" fill="rgb(33, 33, 33)" stroke="none" stroke-width="1px">200k</text><text x="366.52552938793053" y="0" dx="0em" dy="0.95em" style="text-anchor: middle; visibility: inherit; font-family: Roboto, sans-serif; font-size: 12px; font-weight: 200;" fill="rgb(33, 33, 33)" stroke="none" stroke-width="1px">300k</text><text x="478.20952795367896" y="0" dx="0em" dy="0.95em" style="text-anchor: middle; visibility: inherit; font-family: Roboto, sans-serif; font-size: 12px; font-weight: 200;" fill="rgb(33, 33, 33)" stroke="none" stroke-width="1px">400k</text><text x="589.8935265194274" y="0" dx="0em" dy="0.95em" style="text-anchor: middle; visibility: inherit; font-family: Roboto, sans-serif; font-size: 12px; font-weight: 200;" fill="rgb(33, 33, 33)" stroke="none" stroke-width="1px">500k</text><text x="701.5775250851757" y="0" dx="0em" dy="0.95em" style="text-anchor: middle; visibility: inherit; font-family: Roboto, sans-serif; font-size: 12px; font-weight: 200;" fill="rgb(33, 33, 33)" stroke="none" stroke-width="1px">600k</text><text x="813.2615236509241" y="0" dx="0em" dy="0.95em" style="text-anchor: middle; visibility: inherit; font-family: Roboto, sans-serif; font-size: 12px; font-weight: 200;" fill="rgb(33, 33, 33)" stroke="none" stroke-width="1px">700k</text><text x="924.9455222166727" y="0" dx="0em" dy="0.95em" style="text-anchor: middle; visibility: inherit; font-family: Roboto, sans-serif; font-size: 12px; font-weight: 200;" fill="rgb(33, 33, 33)" stroke="none" stroke-width="1px">800k</text></g><line x1="0" y1="0" x2="1000.71" y2="0" fill="rgb(0, 0, 0)" stroke="rgb(204, 204, 204)" stroke-width="1px"></line></g></g></g></g></svg>