<svg viewBox="0 0 1040.71435546875 400.0000305175781" xmlns="http://www.w3.org/2000/svg"><g><g><g><g><g><line x1="40" y1="362.649177781437" x2="35" y2="362.649177781437" style="visibility: inherit;" fill="rgb(0, 0, 0)" stroke="rgb(204, 204, 204)" stroke-width="1px"></line><line x1="40" y1="338.55571205724647" x2="35" y2="338.55571205724647" style="visibility: inherit;" fill="rgb(0, 0, 0)" stroke="rgb(204, 204, 204)" stroke-width="1px"></line><line x1="40" y1="314.462246333056" x2="35" y2="314.462246333056" style="visibility: inherit;" fill="rgb(0, 0, 0)" stroke="rgb(204, 204, 204)" stroke-width="1px"></line><line x1="40" y1="290.36878060886545" x2="35" y2="290.36878060886545" style="visibility: inherit;" fill="rgb(0, 0, 0)" stroke="rgb(204, 204, 204)" stroke-width="1px"></line><line x1="40" y1="266.27531488467497" x2="35" y2="266.27531488467497" style="visibility: inherit;" fill="rgb(0, 0, 0)" stroke="rgb(204, 204, 204)" stroke-width="1px"></line><line x1="40" y1="242.18184916048446" x2="35" y2="242.18184916048446" style="visibility: inherit;" fill="rgb(0, 0, 0)" stroke="rgb(204, 204, 204)" stroke-width="1px"></line><line x1="40" y1="218.08838343629395" x2="35" y2="218.08838343629395" style="visibility: inherit;" fill="rgb(0, 0, 0)" stroke="rgb(204, 204, 204)" stroke-width="1px"></line><line x1="40" y1="193.99491771210347" x2="35" y2="193.99491771210347" style="visibility: inherit;" fill="rgb(0, 0, 0)" stroke="rgb(204, 204, 204)" stroke-width="1px"></line><line x1="40" y1="169.90145198791294" x2="35" y2="169.90145198791294" style="visibility: inherit;" fill="rgb(0, 0, 0)" stroke="rgb(204, 204, 204)" stroke-width="1px"></line><line x1="40" y1="145.80798626372243" x2="35" y2="145.80798626372243" style="visibility: inherit;" fill="rgb(0, 0, 0)" stroke="rgb(204, 204, 204)" stroke-width="1px"></line><line x1="40" y1="121.71452053953195" x2="35" y2="121.71452053953195" style="visibility: inherit;" fill="rgb(0, 0, 0)" stroke="rgb(204, 204, 204)" stroke-width="1px"></line><line x1="40" y1="97.62105481534142" x2="35" y2="97.62105481534142" style="visibility: inherit;" fill="rgb(0, 0, 0)" stroke="rgb(204, 204, 204)" stroke-width="1px"></line><line x1="40" y1="73.52758909115094" x2="35" y2="73.52758909115094" style="visibility: inherit;" fill="rgb(0, 0, 0)" stroke="rgb(204, 204, 204)" stroke-width="1px"></line><line x1="40" y1="49.43412336696042" x2="35" y2="49.43412336696042" style="visibility: inherit;" fill="rgb(0, 0, 0)" stroke="rgb(204, 204, 204)" stroke-width="1px"></line><line x1="40" y1="25.340657642769898" x2="35" y2="25.340657642769898" style="visibility: inherit;" fill="rgb(0, 0, 0)" stroke="rgb(204, 204, 204)" stroke-width="1px"></line><line x1="40" y1="1.2471919185794165" x2="35" y2="1.2471919185794165" style="visibility: inherit;" fill="rgb(0, 0, 0)" stroke="rgb(204, 204, 204)" stroke-width="1px"></line></g><g transform="translate(30, 0)"><text x="0" y="362.649177781437" dx="0em" dy="0.3em" style="text-anchor: end; visibility: inherit; font-family: Roboto, sans-serif; font-size: 12px; font-weight: 200;" fill="rgb(33, 33, 33)" stroke="none" stroke-width="1px">20</text><text x="0" y="338.55571205724647" dx="0em" dy="0.3em" style="text-anchor: end; visibility: inherit; font-family: Roboto, sans-serif; font-size: 12px; font-weight: 200;" fill="rgb(33, 33, 33)" stroke="none" stroke-width="1px">40</text><text x="0" y="314.462246333056" dx="0em" dy="0.3em" style="text-anchor: end; visibility: inherit; font-family: Roboto, sans-serif; font-size: 12px; font-weight: 200;" fill="rgb(33, 33, 33)" stroke="none" stroke-width="1px">60</text><text x="0" y="290.36878060886545" dx="0em" dy="0.3em" style="text-anchor: end; visibility: inherit; font-family: Roboto, sans-serif; font-size: 12px; font-weight: 200;" fill="rgb(33, 33, 33)" stroke="none" stroke-width="1px">80</text><text x="0" y="266.27531488467497" dx="0em" dy="0.3em" style="text-anchor: end; visibility: inherit; font-family: Roboto, sans-serif; font-size: 12px; font-weight: 200;" fill="rgb(33, 33, 33)" stroke="none" stroke-width="1px">100</text><text x="0" y="242.18184916048446" dx="0em" dy="0.3em" style="text-anchor: end; visibility: inherit; font-family: Roboto, sans-serif; font-size: 12px; font-weight: 200;" fill="rgb(33, 33, 33)" stroke="none" stroke-width="1px">120</text><text x="0" y="218.08838343629395" dx="0em" dy="0.3em" style="text-anchor: end; visibility: inherit; font-family: Roboto, sans-serif; font-size: 12px; font-weight: 200;" fill="rgb(33, 33, 33)" stroke="none" stroke-width="1px">140</text><text x="0" y="193.99491771210347" dx="0em" dy="0.3em" style="text-anchor: end; visibility: inherit; font-family: Roboto, sans-serif; font-size: 12px; font-weight: 200;" fill="rgb(33, 33, 33)" stroke="none" stroke-width="1px">160</text><text x="0" y="169.90145198791294" dx="0em" dy="0.3em" style="text-anchor: end; visibility: inherit; font-family: Roboto, sans-serif; font-size: 12px; font-weight: 200;" fill="rgb(33, 33, 33)" stroke="none" stroke-width="1px">180</text><text x="0" y="145.80798626372243" dx="0em" dy="0.3em" style="text-anchor: end; visibility: inherit; font-family: Roboto, sans-serif; font-size: 12px; font-weight: 200;" fill="rgb(33, 33, 33)" stroke="none" stroke-width="1px">200</text><text x="0" y="121.71452053953195" dx="0em" dy="0.3em" style="text-anchor: end; visibility: inherit; font-family: Roboto, sans-serif; font-size: 12px; font-weight: 200;" fill="rgb(33, 33, 33)" stroke="none" stroke-width="1px">220</text><text x="0" y="97.62105481534142" dx="0em" dy="0.3em" style="text-anchor: end; visibility: inherit; font-family: Roboto, sans-serif; font-size: 12px; font-weight: 200;" fill="rgb(33, 33, 33)" stroke="none" stroke-width="1px">240</text><text x="0" y="73.52758909115094" dx="0em" dy="0.3em" style="text-anchor: end; visibility: inherit; font-family: Roboto, sans-serif; font-size: 12px; font-weight: 200;" fill="rgb(33, 33, 33)" stroke="none" stroke-width="1px">260</text><text x="0" y="49.43412336696042" dx="0em" dy="0.3em" style="text-anchor: end; visibility: inherit; font-family: Roboto, sans-serif; font-size: 12px; font-weight: 200;" fill="rgb(33, 33, 33)" stroke="none" stroke-width="1px">280</text><text x="0" y="25.340657642769898" dx="0em" dy="0.3em" style="text-anchor: end; visibility: inherit; font-family: Roboto, sans-serif; font-size: 12px; font-weight: 200;" fill="rgb(33, 33, 33)" stroke="none" stroke-width="1px">300</text><text x="0" y="1.2471919185794165" dx="0em" dy="0.3em" style="text-anchor: end; visibility: hidden; font-family: Roboto, sans-serif; font-size: 12px; font-weight: 200;" fill="rgb(33, 33, 33)" stroke="none" stroke-width="1px">320</text></g><line x1="40" y1="0" x2="40" y2="377" fill="rgb(0, 0, 0)" stroke="rgb(204, 204, 204)" stroke-width="1px"></line></g></g><g transform="translate(40, 0)" clip-path="url(#clip_0)"><clipPath id="clip_0"><rect width="1000" height="377"></rect></clipPath><g><g><g><line x1="18.466548415145947" y1="0" x2="18.466548415145947" y2="377" fill="rgb(0, 0, 0)" stroke="rgb(66, 66, 66)" stroke-width="1px" opacity="0.25"></line><line x1="114.97757554172462" y1="0" x2="114.97757554172462" y2="377" fill="rgb(0, 0, 0)" stroke="rgb(66, 66, 66)" stroke-width="1px" opacity="0.25"></line><line x1="211.48860266830332" y1="0" x2="211.48860266830332" y2="377" fill="rgb(0, 0, 0)" stroke="rgb(66, 66, 66)" stroke-width="1px" opacity="0.25"></line><line x1="307.999629794882" y1="0" x2="307.999629794882" y2="377" fill="rgb(0, 0, 0)" stroke="rgb(66, 66, 66)" stroke-width="1px" opacity="0.25"></line><line x1="404.51065692146074" y1="0" x2="404.51065692146074" y2="377" fill="rgb(0, 0, 0)" stroke="rgb(66, 66, 66)" stroke-width="1px" opacity="0.25"></line><line x1="501.02168404803933" y1="0" x2="501.02168404803933" y2="377" fill="rgb(0, 0, 0)" stroke="rgb(66, 66, 66)" stroke-width="1px" opacity="0.25"></line><line x1="597.532711174618" y1="0" x2="597.532711174618" y2="377" fill="rgb(0, 0, 0)" stroke="rgb(66, 66, 66)" stroke-width="1px" opacity="0.25"></line><line x1="694.0437383011968" y1="0" x2="694.0437383011968" y2="377" fill="rgb(0, 0, 0)" stroke="rgb(66, 66, 66)" stroke-width="1px" opacity="0.25"></line><line x1="790.5547654277755" y1="0" x2="790.5547654277755" y2="377" fill="rgb(0, 0, 0)" stroke="rgb(66, 66, 66)" stroke-width="1px" opacity="0.25"></line><line x1="887.0657925543541" y1="0" x2="887.0657925543541" y2="377" fill="rgb(0, 0, 0)" stroke="rgb(66, 66, 66)" stroke-width="1px" opacity="0.25"></line><line x1="983.5768196809328" y1="0" x2="983.5768196809328" y2="377" fill="rgb(0, 0, 0)" stroke="rgb(66, 66, 66)" stroke-width="1px" opacity="0.25"></line></g><g><line x1="0" y1="362.649177781437" x2="1000.71" y2="362.649177781437" fill="rgb(0, 0, 0)" stroke="rgb(66, 66, 66)" stroke-width="1px" opacity="0.25"></line><line x1="0" y1="338.55571205724647" x2="1000.71" y2="338.55571205724647" fill="rgb(0, 0, 0)" stroke="rgb(66, 66, 66)" stroke-width="1px" opacity="0.25"></line><line x1="0" y1="314.462246333056" x2="1000.71" y2="314.462246333056" fill="rgb(0, 0, 0)" stroke="rgb(66, 66, 66)" stroke-width="1px" opacity="0.25"></line><line x1="0" y1="290.36878060886545" x2="1000.71" y2="290.36878060886545" fill="rgb(0, 0, 0)" stroke="rgb(66, 66, 66)" stroke-width="1px" opacity="0.25"></line><line x1="0" y1="266.27531488467497" x2="1000.71" y2="266.27531488467497" fill="rgb(0, 0, 0)" stroke="rgb(66, 66, 66)" stroke-width="1px" opacity="0.25"></line><line x1="0" y1="242.18184916048446" x2="1000.71" y2="242.18184916048446" fill="rgb(0, 0, 0)" stroke="rgb(66, 66, 66)" stroke-width="1px" opacity="0.25"></line><line x1="0" y1="218.08838343629395" x2="1000.71" y2="218.08838343629395" fill="rgb(0, 0, 0)" stroke="rgb(66, 66, 66)" stroke-width="1px" opacity="0.25"></line><line x1="0" y1="193.99491771210347" x2="1000.71" y2="193.99491771210347" fill="rgb(0, 0, 0)" stroke="rgb(66, 66, 66)" stroke-width="1px" opacity="0.25"></line><line x1="0" y1="169.90145198791294" x2="1000.71" y2="169.90145198791294" fill="rgb(0, 0, 0)" stroke="rgb(66, 66, 66)" stroke-width="1px" opacity="0.25"></line><line x1="0" y1="145.80798626372243" x2="1000.71" y2="145.80798626372243" fill="rgb(0, 0, 0)" stroke="rgb(66, 66, 66)" stroke-width="1px" opacity="0.25"></line><line x1="0" y1="121.71452053953195" x2="1000.71" y2="121.71452053953195" fill="rgb(0, 0, 0)" stroke="rgb(66, 66, 66)" stroke-width="1px" opacity="0.25"></line><line x1="0" y1="97.62105481534142" x2="1000.71" y2="97.62105481534142" fill="rgb(0, 0, 0)" stroke="rgb(66, 66, 66)" stroke-width="1px" opacity="0.25"></line><line x1="0" y1="73.52758909115094" x2="1000.71" y2="73.52758909115094" fill="rgb(0, 0, 0)" stroke="rgb(66, 66, 66)" stroke-width="1px" opacity="0.25"></line><line x1="0" y1="49.43412336696042" x2="1000.71" y2="49.43412336696042" fill="rgb(0, 0, 0)" stroke="rgb(66, 66, 66)" stroke-width="1px" opacity="0.25"></line><line x1="0" y1="25.340657642769898" x2="1000.71" y2="25.340657642769898" fill="rgb(0, 0, 0)" stroke="rgb(66, 66, 66)" stroke-width="1px" opacity="0.25"></line><line x1="0" y1="1.2471919185794165" x2="1000.71" y2="1.2471919185794165" fill="rgb(0, 0, 0)" stroke="rgb(66, 66, 66)" stroke-width="1px" opacity="0.25"></line></g></g></g><g><g><line x1="0" y1="386.7426435056275" x2="1000.71" y2="386.7426435056275" fill="rgb(0, 0, 0)" stroke="rgb(153, 153, 153)" stroke-width="1.5px"></line></g></g><g><g><line x1="18.466548415145947" y1="0" x2="18.466548415145947" y2="377" fill="rgb(0, 0, 0)" stroke="rgb(153, 153, 153)" stroke-width="1.5px"></line></g></g><g><g><g><g><g><path stroke="rgb(255, 112, 67)" stroke-width="2px" d="M23.407913004026778,230.13511629838922L28.349277592907605,319.73269196022267L33.290642181788435,325.34118366260117L38.23200677066926,338.0574556429135L43.17337135955009,347.6785415060747L48.11473594843091,340.31266205341336L53.05610053731175,309.1011979733198L57.99746512619258,303.9307336539751L62.9388297150734,334.22868054872066L67.88019430395424,295.2467619805952L72.82155889283507,310.940736688773L77.76292348171589,262.85305940540593L82.70428807059672,225.86504217812427L87.64565265947755,237.46047944063235L92.58701724835838,239.34991571313785L97.5283818372392,232.0479161142686L102.46974642612003,246.22314432952044L107.41111101500086,238.34152471667016L112.35247560388169,290.71805878735626L117.29384019276252,308.16721546343354L122.23520478164335,321.28664053010647L127.17656937052416,331.0856140036238L132.11793395940498,289.50041322442155L137.05929854828582,278.28284347746455L142.00066313716664,256.1324737447924L146.94202772604748,224.29029195475755L151.88339231492833,275.7789444676988L156.82475690380915,279.4464692611941L161.76612149269,321.1602810424844L166.70748608157078,344.0201458800749L171.64885067045162,290.75621795050046L176.59021525933244,318.79060014231084L181.53157984821328,289.5927062987749L186.4729444370941,288.4575280468355L191.41430902597494,248.2631366495536L196.3556736148558,134.51880883495843L201.2970382037366,170.5969201284286L206.23840279261745,183.08826975242604L211.17976738149824,218.29056514168866L216.12113197037908,119.42648285819321L221.0624965592599,197.44078831070968L226.00386114814074,244.49030619953172L230.94522573702156,251.03589776030185L235.8865903259024,237.61595737113188L240.82795491478322,166.92098224971107L245.76931950366406,165.70382357249682L250.7106840925449,242.31355334376252L255.6520486814257,297.19397352283784L260.59341327030654,269.6476266609616L265.5347778591874,266.8530940069729L270.4761424480682,282.5236697360955L275.417507036949,309.5142451522306L280.3588716258298,306.91568713696L285.3002362147107,305.3565523278006L290.2416008035915,324.6595826506387L295.18296539247234,338.89168207399575L300.1243299813532,346.4672030990387L305.06569457023403,337.5201749085149L310.0070591591148,302.03512583896077L314.9484237479956,300.0188689765835L319.88978833687656,246.2853595804204L324.83115292575735,269.2192904511207L329.77251751463814,308.277787983941L334.713882103519,302.07792366287833L339.6552466923998,298.8398743847246L344.5966112812807,231.12188339079214L349.53797587016146,267.1083097973587L354.4793404590423,222.4431348997746L359.42070504792315,246.72217729650814L364.36206963680394,286.34680708770634L369.3034342256848,280.4866221216709L374.2447988145656,283.4757468875811L379.18616340344647,287.19669900506244L384.12752799232726,254.9756142899589L389.0688925812081,292.0216732555025L394.01025717008895,264.3758345857543L398.9516217589698,268.5087119067092L403.8929863478506,230.51141588264218L408.8343509367314,249.15379931380963L413.77571552561227,225.40370407243384L418.71708011449306,274.2785271249875L423.6584447033739,288.66547220752153L428.59980929225475,314.8858692357011L433.5411738811356,303.39249118427347L438.4825384700164,275.7760838306131L443.4239030588972,227.88473397696924L448.36526764777807,159.87757493435237L453.30663223665886,103.17159213081649L458.2479968255397,150.8248512537008L463.18936141442055,137.49417636733997L468.1307260033014,95.52398476441476L473.0720905921822,158.0420850387131L478.013455181063,183.265277683955L482.95481976994387,166.3548838579267L487.89618435882466,167.53257645267928L492.8375489477055,226.06350974758806L497.7789135365863,248.17159823347046L502.72027812546713,166.9900656861731L507.66164271434803,212.96846645386339L512.6030073032289,122.01565555146026L517.5443718921097,183.33353914337474L522.4857364809905,238.91717256339197L527.4271010698712,240.9458471739547L532.3684656587521,176.62882517049414L537.3098302476329,251.03696621487128L542.2511948365137,230.1476240716994L547.1925594253946,235.92505273618107L552.1339240142755,278.6638590653006L557.0752886031563,309.3667706648523L562.0166531920371,258.3993363389146L566.9580177809179,250.94860283857497L571.8993823697987,271.29443243428733L576.8407469586796,286.15221142137574L581.7821115475605,298.6808986722574L586.7234761364413,315.1126933407368L591.664840725322,325.21270479906644L596.606205314203,342.11477124994985L601.5475699030837,359.9659201522209L606.4889344919645,340.80071199558733L611.4302990808453,336.52962681886436L616.3716636697262,305.0548168438019L621.3130282586071,332.4293850492102L626.2543928474879,352.2272111738419L631.1957574363687,360.2509523327504L636.1371220252495,360.48743854049934L641.0784866141304,334.8493219402649L646.0198512030112,353.4382386512328L650.961215791892,327.2467168053182L655.9025803807729,334.4205961357505L660.8439449696536,335.59277318986506L665.7853095585345,311.7207443836595L670.7266741474153,266.79882563021425L675.6680387362961,217.43875125464987L680.6094033251769,230.95001027561227L685.5507679140578,263.87303538410595L690.4921325029387,202.4318709586801L695.4334970918195,196.8886777448723L700.3748616807003,227.77548314493814L705.3162262695811,230.16494434976997L710.257590858462,280.2674218355339L715.1989554473428,294.4272209490266L720.1403200362236,277.6249614067221L725.0816846251045,255.49687281924417L730.0230492139854,265.8316160764642L734.9644138028661,280.9470443487466L739.9057783917469,299.8946222590341L744.8471429806277,290.30185382516095L749.7885075695085,284.30525810759514L754.7298721583894,251.79514180802704L759.6712367472702,263.369642812492L764.6126013361511,279.9517297048471L769.5539659250319,318.57220605204685L774.4953305139127,322.2287846237724L779.4366951027936,341.0472231164992L784.3780596916744,316.92089159757523L789.3194242805552,271.60545655925705L794.2607888694359,271.15994249011754L799.202153458317,267.27861419000527L804.1435180471977,290.97076019206366L809.0848826360785,326.1473629733444L814.0262472249593,261.9624559784785L818.9676118138401,252.84553996507137L823.908976402721,254.84436473152616L828.8503409916018,263.9945032803819L833.7917055804827,239.12681959721527L838.7330701693635,281.3077231536468L843.6744347582444,240.8411038604656L848.6157993471252,245.71422581082743L853.557163936006,279.95960442249225L858.4985285248868,309.42141390744155L863.4398931137675,296.74073278593113L868.3812577026484,309.129900664103L873.3226222915293,285.24189594955845L878.2639868804101,241.5150649373193L883.2053514692909,234.55373890932822L888.1467160581718,184.1174891020878L893.0880806470526,242.2787584255227L898.0294452359334,250.4317730657322L902.9708098248142,177.2607529034806L907.9121744136951,139.6224418944192L912.853539002576,228.5922015919844L917.7949035914568,253.54376785597879L922.7362681803376,226.1102079398001L927.6776327692183,259.28261138192534L932.6189973580993,286.1731585072157L937.56036194698,302.5484214396318L942.5017265358609,209.494480556788L947.4430911247417,189.32044529888373L952.3844557136225,193.35864617934874L957.3258203025034,45.67927524592094L962.2671848913842,10.800081250809097L967.208549480265,120.70008373609642L972.1499140691458,177.2436335948345L977.0912786580267,129.4929147050715L982.0326432469076,62.05200355526704L986.9740078357884,32.429516441270096" style="fill: none;" fill="none"></path></g></g></g></g><g opacity="0.2"><g><g><g><path stroke="rgb(255, 112, 67)" stroke-width="2px" d="M23.407913004026778,230.13511629838922L28.349277592907605,373.49123735732275L33.290642181788435,330.7253356968846L38.23200677066926,353.0117914917608L43.17337135955009,360.23983120901795L48.11473594843091,330.12299905377984L53.05610053731175,264.4683049553607L57.99746512619258,296.39214703991314L62.9388297150734,378.91226714526556L67.88019430395424,237.36315601564638L72.82155889283507,334.3393555555131L77.76292348171589,190.98323449657963L82.70428807059672,170.5037886310177L87.64565265947755,254.8309186656845L92.58701724835838,242.18184916048446L97.5283818372392,221.10006665181774L102.46974642612003,267.4799881708845L107.41111101500086,226.52109643976064L112.35247560388169,369.2748808555894L117.29384019276252,334.3393555555131L122.23520478164335,340.9650586296655L127.17656937052416,345.7837517745036L132.11793395940498,227.12343308286543L137.05929854828582,261.4566217398369L142.00066313716664,222.90707658113203L146.94202772604748,176.52715506206533L151.88339231492833,353.0117914917608L156.82475690380915,284.94775082092264L161.76612149269,383.73096029010367L166.70748608157078,378.3099305021608L171.64885067045162,210.8603437190368L176.59021525933244,360.8421678521227L181.53157984821328,245.795869019113L186.4729444370941,286.75476075023687L191.41430902597494,187.97155128105584L196.3556736148558,-36.09767995391589L201.2970382037366,224.71408651044635L206.23840279261745,201.82529407246537L211.17976738149824,271.0940080295131L216.12113197037908,-28.869640236658704L221.0624965592599,314.462246333056L226.00386114814074,315.06458297616075L230.94522573702156,260.8542850967321L235.8865903259024,217.48604679318916L240.82795491478322,60.878519585950905L245.76931950366406,163.8780855568653L250.7106840925449,357.22814799349413L255.6520486814257,379.5146037883704L260.59341327030654,228.32810636907493L265.5347778591874,262.6612950260464L270.4761424480682,306.0295333295893L275.417507036949,350.000108276237L280.3588716258298,303.0178501140655L285.3002362147107,303.0178501140655L290.2416008035915,353.61412813486555L295.18296539247234,360.23983120901795L300.1243299813532,357.8304846365989L305.06569457023403,324.0996326227322L310.0070591591148,248.80755223463686L314.9484237479956,296.99448368301785L319.88978833687656,165.6850954861796L324.83115292575735,303.62018675717025L329.77251751463814,366.86553428317035L334.713882103519,292.7781271812845L339.6552466923998,293.9828004674941L344.5966112812807,129.54489689989384L349.53797587016146,321.0879494072083L354.4793404590423,155.4453725533986L359.42070504792315,283.14074089160835L364.36206963680394,345.7837517745036L369.3034342256848,271.69634467261784L374.2447988145656,287.95943403644645L379.18616340344647,292.7781271812845L384.12752799232726,206.64398721730345L389.0688925812081,347.5907617038179L394.01025717008895,222.90707658113203L398.9516217589698,274.70802788814166L403.8929863478506,173.5154718465415L408.8343509367314,277.1173744605607L413.77571552561227,189.77856121037007L418.71708011449306,347.5907617038179L423.6584447033739,310.24588983132264L428.59980929225475,354.2164647779703L433.5411738811356,286.1524241071321L438.4825384700164,234.35147280012254L443.4239030588972,156.0477091965034L448.36526764777807,57.86683637042711L453.30663223665886,18.11261792551275L458.2479968255397,222.3047399380273L463.18936141442055,117.4981640377986L468.1307260033014,32.56869736002708L473.0720905921822,251.81923545016068L478.013455181063,221.10006665181774L482.95481976994387,140.98929311888432L487.89618435882466,169.2991153448082L492.8375489477055,313.8599096899512L497.7789135365863,281.33373096229406L502.72027812546713,45.21776686522708L507.66164271434803,281.93606760539876L512.6030073032289,-14.413560802144417L517.5443718921097,275.31036453124636L522.4857364809905,322.2926226934179L527.4271010698712,243.98885908979872L532.3684656587521,80.1532921653033L537.3098302476329,362.649177781437L542.2511948365137,198.81361085694155L547.1925594253946,244.59119573290351L552.1339240142755,342.7720685589798L557.0752886031563,355.42113806417984L562.0166531920371,181.94818485000818L566.9580177809179,239.77250258806544L571.8993823697987,301.81317682785595L576.8407469586796,308.43887990200835L581.7821115475605,317.4739295485798L586.7234761364413,339.760385343456L591.664840725322,340.36272198656076L596.606205314203,367.4678709262751L601.5475699030837,386.7426435056275L606.4889344919645,312.05289976063693L611.4302990808453,330.12299905377984L616.3716636697262,257.8426018812083L621.3130282586071,373.49123735732275L626.2543928474879,381.9239503607894L631.1957574363687,372.2865640711132L636.1371220252495,360.8421678521227L641.0784866141304,296.39214703991314L646.0198512030112,381.32161371768467L650.961215791892,287.95943403644645L655.9025803807729,345.18141513139886L660.8439449696536,337.351038771037L665.7853095585345,275.9127011743512L670.7266741474153,199.41594750004631L675.6680387362961,143.39863969130337L680.6094033251769,251.2168988070559L685.5507679140578,313.25757304684646L690.4921325029387,110.27012432054146L695.4334970918195,188.57388792416057L700.3748616807003,274.1056912450369L705.3162262695811,233.74913615701777L710.257590858462,355.42113806417984L715.1989554473428,315.6669196192655L720.1403200362236,252.4215720932654L725.0816846251045,222.3047399380273L730.0230492139854,281.33373096229406L734.9644138028661,303.62018675717025L739.9057783917469,328.31598912446555L744.8471429806277,275.9127011743512L749.7885075695085,275.31036453124636L754.7298721583894,203.02996735867487L759.6712367472702,280.7313943191893L764.6126013361511,304.8248600433798L769.5539659250319,376.50292057284656L774.4953305139127,327.7136524813607L779.4366951027936,369.2748808555894L784.3780596916744,280.7313943191893L789.3194242805552,203.63230400177966L794.2607888694359,270.4916713864083L799.202153458317,261.4566217398369L804.1435180471977,326.50897919515126L809.0848826360785,378.91226714526556L814.0262472249593,165.6850954861796L818.9676118138401,239.17016594496064L823.908976402721,257.8426018812083L828.8503409916018,277.7197111036655L833.7917055804827,201.82529407246537L838.7330701693635,344.5790784882941L843.6744347582444,180.14117492069389L848.6157993471252,253.0239087363702L853.557163936006,331.3276723399893L858.4985285248868,353.61412813486555L863.4398931137675,277.7197111036655L868.3812577026484,327.7136524813607L873.3226222915293,249.40988887774162L878.2639868804101,175.92481841896054L883.2053514692909,224.1117498673416L888.1467160581718,108.46311439122717L893.0880806470526,329.520662410675L898.0294452359334,262.6612950260464L902.9708098248142,67.5042226601033L907.9121744136951,83.16497538082713L912.853539002576,362.04684113833224L917.7949035914568,290.9711172519702L922.7362681803376,184.959868065532L927.6776327692183,309.0412165451131L932.6189973580993,326.50897919515126L937.56036194698,327.11131583825596L942.5017265358609,69.91356923252235L947.4430911247417,159.05939241202722L952.3844557136225,199.41594750004631L957.3258203025034,-175.83978115422076L962.2671848913842,-41.5187097418587L967.208549480265,285.5500874640274L972.1499140691458,262.0589583829416L977.0912786580267,57.86683637042711L982.0326432469076,-39.10936316943969" style="fill: none;" fill="none"></path></g></g></g></g></g></g><g transform="translate(40, 377)" clip-path="url(#clip_1)"><clipPath id="clip_1"><rect width="1000" height="23"></rect></clipPath><g><g><line x1="18.466548415145947" y1="0" x2="18.466548415145947" y2="5" style="visibility: inherit;" fill="rgb(0, 0, 0)" stroke="rgb(204, 204, 204)" stroke-width="1px"></line><line x1="114.97757554172462" y1="0" x2="114.97757554172462" y2="5" style="visibility: inherit;" fill="rgb(0, 0, 0)" stroke="rgb(204, 204, 204)" stroke-width="1px"></line><line x1="211.48860266830332" y1="0" x2="211.48860266830332" y2="5" style="visibility: inherit;" fill="rgb(0, 0, 0)" stroke="rgb(204, 204, 204)" stroke-width="1px"></line><line x1="307.999629794882" y1="0" x2="307.999629794882" y2="5" style="visibility: inherit;" fill="rgb(0, 0, 0)" stroke="rgb(204, 204, 204)" stroke-width="1px"></line><line x1="404.51065692146074" y1="0" x2="404.51065692146074" y2="5" style="visibility: inherit;" fill="rgb(0, 0, 0)" stroke="rgb(204, 204, 204)" stroke-width="1px"></line><line x1="501.02168404803933" y1="0" x2="501.02168404803933" y2="5" style="visibility: inherit;" fill="rgb(0, 0, 0)" stroke="rgb(204, 204, 204)" stroke-width="1px"></line><line x1="597.532711174618" y1="0" x2="597.532711174618" y2="5" style="visibility: inherit;" fill="rgb(0, 0, 0)" stroke="rgb(204, 204, 204)" stroke-width="1px"></line><line x1="694.0437383011968" y1="0" x2="694.0437383011968" y2="5" style="visibility: inherit;" fill="rgb(0, 0, 0)" stroke="rgb(204, 204, 204)" stroke-width="1px"></line><line x1="790.5547654277755" y1="0" x2="790.5547654277755" y2="5" style="visibility: inherit;" fill="rgb(0, 0, 0)" stroke="rgb(204, 204, 204)" stroke-width="1px"></line><line x1="887.0657925543541" y1="0" x2="887.0657925543541" y2="5" style="visibility: inherit;" fill="rgb(0, 0, 0)" stroke="rgb(204, 204, 204)" stroke-width="1px"></line><line x1="983.5768196809328" y1="0" x2="983.5768196809328" y2="5" style="visibility: inherit;" fill="rgb(0, 0, 0)" stroke="rgb(204, 204, 204)" stroke-width="1px"></line></g><g transform="translate(0, 8)"><text x="18.466548415145947" y="0" dx="0em" dy="0.95em" style="text-anchor: middle; visibility: inherit; font-family: Roboto, sans-serif; font-size: 12px; font-weight: 200;" fill="rgb(33, 33, 33)" stroke="none" stroke-width="1px">0</text><text x="114.97757554172462" y="0" dx="0em" dy="0.95em" style="text-anchor: middle; visibility: inherit; font-family: Roboto, sans-serif; font-size: 12px; font-weight: 200;" fill="rgb(33, 33, 33)" stroke="none" stroke-width="1px">20k</text><text x="211.48860266830332" y="0" dx="0em" dy="0.95em" style="text-anchor: middle; visibility: inherit; font-family: Roboto, sans-serif; font-size: 12px; font-weight: 200;" fill="rgb(33, 33, 33)" stroke="none" stroke-width="1px">40k</text><text x="307.999629794882" y="0" dx="0em" dy="0.95em" style="text-anchor: middle; visibility: inherit; font-family: Roboto, sans-serif; font-size: 12px; font-weight: 200;" fill="rgb(33, 33, 33)" stroke="none" stroke-width="1px">60k</text><text x="404.51065692146074" y="0" dx="0em" dy="0.95em" style="text-anchor: middle; visibility: inherit; font-family: Roboto, sans-serif; font-size: 12px; font-weight: 200;" fill="rgb(33, 33, 33)" stroke="none" stroke-width="1px">80k</text><text x="501.02168404803933" y="0" dx="0em" dy="0.95em" style="text-anchor: middle; visibility: inherit; font-family: Roboto, sans-serif; font-size: 12px; font-weight: 200;" fill="rgb(33, 33, 33)" stroke="none" stroke-width="1px">100k</text><text x="597.532711174618" y="0" dx="0em" dy="0.95em" style="text-anchor: middle; visibility: inherit; font-family: Roboto, sans-serif; font-size: 12px; font-weight: 200;" fill="rgb(33, 33, 33)" stroke="none" stroke-width="1px">120k</text><text x="694.0437383011968" y="0" dx="0em" dy="0.95em" style="text-anchor: middle; visibility: inherit; font-family: Roboto, sans-serif; font-size: 12px; font-weight: 200;" fill="rgb(33, 33, 33)" stroke="none" stroke-width="1px">140k</text><text x="790.5547654277755" y="0" dx="0em" dy="0.95em" style="text-anchor: middle; visibility: inherit; font-family: Roboto, sans-serif; font-size: 12px; font-weight: 200;" fill="rgb(33, 33, 33)" stroke="none" stroke-width="1px">160k</text><text x="887.0657925543541" y="0" dx="0em" dy="0.95em" style="text-anchor: middle; visibility: inherit; font-family: Roboto, sans-serif; font-size: 12px; font-weight: 200;" fill="rgb(33, 33, 33)" stroke="none" stroke-width="1px">180k</text><text x="983.5768196809328" y="0" dx="0em" dy="0.95em" style="text-anchor: middle; visibility: inherit; font-family: Roboto, sans-serif; font-size: 12px; font-weight: 200;" fill="rgb(33, 33, 33)" stroke="none" stroke-width="1px">200k</text></g><line x1="0" y1="0" x2="1000.71" y2="0" fill="rgb(0, 0, 0)" stroke="rgb(204, 204, 204)" stroke-width="1px"></line></g></g></g></g></svg>